<svg width="57" height="27" viewBox="0 0 57 27" fill="none" xmlns="http://www.w3.org/2000/svg">
<path d="M56.0744 11.9588C56.0737 11.9581 56.0732 11.9574 56.0724 11.9567L44.695 0.634178C43.8426 -0.214034 42.464 -0.210877 41.6156 0.641581C40.7673 1.49393 40.7705 2.87256 41.6229 3.72088L49.2617 11.3227H3.14861C1.94602 11.3227 0.971191 12.2975 0.971191 13.5001C0.971191 14.7027 1.94602 15.6775 3.14861 15.6775H49.2616L41.623 23.2793C40.7706 24.1276 40.7674 25.5062 41.6157 26.3586C42.4641 27.2112 43.8428 27.2141 44.6951 26.366L56.0725 15.0434C56.0732 15.0428 56.0737 15.042 56.0745 15.0414C56.9273 14.1902 56.9245 12.8071 56.0744 11.9588Z" fill="#4A8EFF"/>
</svg>
