<svg width="42" height="42" viewBox="0 0 42 42" fill="none" xmlns="http://www.w3.org/2000/svg">
<circle cx="21" cy="21" r="20.5" fill="white" stroke="#4A8EFF"/>
<g clip-path="url(#clip0)">
<path d="M24.36 31.2816C24.36 31.6791 24.0309 32.0006 23.6238 32.0006H19.2079C18.8008 32.0006 18.4717 31.6791 18.4717 31.2816V20.5002H17.7362C17.3291 20.5002 17 20.1788 17 19.7812V16.906C17 16.5084 17.3291 16.187 17.7362 16.187H23.6238C24.0309 16.187 24.36 16.5084 24.36 16.906V31.2816Z" fill="#03053D"/>
<path d="M21.4158 14.7505C23.0418 14.7505 24.36 13.4632 24.36 11.8753C24.36 10.2873 23.0418 9 21.4158 9C19.7898 9 18.4717 10.2873 18.4717 11.8753C18.4717 13.4632 19.7898 14.7505 21.4158 14.7505Z" fill="#03053D"/>
</g>
<defs>
<clipPath id="clip0">
<rect width="7.36" height="23" fill="white" transform="translate(17 9)"/>
</clipPath>
</defs>
</svg>
