<svg width="301" height="191" viewBox="0 0 301 191" fill="none" xmlns="http://www.w3.org/2000/svg">
<path d="M10.6105 166.356C8.73296 166.356 7.29127 165.801 6.26409 164.704C5.23997 163.613 4.73096 162.04 4.73096 160.025C4.73096 158.013 5.24607 156.447 6.28848 155.356C7.33394 154.243 8.80916 153.679 10.6928 153.679C11.7779 153.679 13.0398 153.862 14.4906 154.216V155.822C12.8356 155.246 11.5584 154.972 10.6684 154.972C9.36085 154.972 8.34282 155.401 7.62654 156.294C6.90417 157.178 6.54756 158.425 6.54756 160.05C6.54756 161.586 6.92551 162.808 7.70274 163.692C8.46779 164.576 9.5102 165.024 10.8422 165.024C11.976 165.024 13.2013 164.661 14.5119 163.969V165.438C13.3202 166.054 12.0126 166.356 10.6105 166.356Z" fill="#858488"/>
<path d="M20.3306 166.054V153.984H27.0788V155.264H22.0435V159.138H26.2619V160.4H22.0435V164.765H27.4263V166.054H20.3306Z" fill="#858488"/>
<path d="M32.7266 166.054V153.984H34.3999L40.4867 163.296V153.984H41.9498V166.054H40.2703L34.1957 156.733V166.054H32.7266Z" fill="#858488"/>
<path d="M51.2617 166.054V155.264H46.9854V153.984H57.254V155.264H52.9777V166.054H51.2617Z" fill="#858488"/>
<path d="M62.3042 166.054V153.981H65.9526C67.1109 153.981 67.9948 154.24 68.6105 154.737C69.2292 155.255 69.5401 156.008 69.5401 156.968C69.5401 158.583 68.7354 159.73 67.0987 160.4L71.1281 166.054H69.022L65.6021 160.937H63.9897V166.054H62.3042ZM63.9897 159.662H64.5445C66.6963 159.662 67.7784 158.824 67.7784 157.127C67.7784 155.877 66.8762 155.261 65.0657 155.261H63.9867V159.662H63.9897Z" fill="#858488"/>
<path d="M81.0557 166.356C79.3854 166.356 78.0321 165.774 77.0202 164.618C75.99 163.46 75.481 161.924 75.481 160.013C75.481 158.087 75.99 156.566 77.0202 155.401C78.0474 154.258 79.4251 153.679 81.1258 153.679C82.8388 153.679 84.2012 154.243 85.2315 155.401C86.2678 156.541 86.7737 158.081 86.7737 160.001C86.7737 161.955 86.2678 163.494 85.2315 164.646C84.2043 165.774 82.8175 166.356 81.0557 166.356ZM81.0832 165.076C82.3115 165.076 83.2716 164.625 83.9452 163.738C84.6188 162.86 84.9541 161.598 84.9541 159.979C84.9541 158.398 84.6219 157.175 83.9452 156.291C83.2594 155.398 82.3359 154.969 81.1289 154.969C79.9219 154.969 78.9922 155.398 78.3217 156.291C77.6359 157.184 77.3067 158.419 77.3067 160.01C77.3067 161.583 77.6328 162.817 78.3156 163.722C78.98 164.628 79.8944 165.076 81.0832 165.076Z" fill="#858488"/>
<path d="M101.127 166.054V153.984H103.507L106.851 163.323L110.292 153.984H112.404V166.054H110.801V156.218L107.482 165.231H105.827L102.596 156.197V166.054H101.127Z" fill="#858488"/>
<path d="M118.851 166.054V153.984H125.59V155.264H120.567V159.138H124.785V160.4H120.567V164.765H125.94V166.054H118.851Z" fill="#858488"/>
<path d="M129.826 166.054L133.816 160.001L130.018 153.984H132.048L134.941 158.526L137.995 153.984H139.607L135.749 159.815L139.708 166.054H137.684L134.618 161.26L131.454 166.054H129.826Z" fill="#858488"/>
<path d="M146.728 153.984H145.024V166.057H146.728V153.984Z" fill="#858488"/>
<path d="M158.353 166.356C156.493 166.356 155.03 165.801 154.006 164.704C152.982 163.613 152.47 162.04 152.47 160.025C152.47 158.013 152.994 156.447 154.037 155.356C155.079 154.243 156.53 153.679 158.435 153.679C159.511 153.679 160.791 153.862 162.233 154.216V155.822C160.59 155.246 159.31 154.972 158.407 154.972C157.1 154.972 156.073 155.401 155.363 156.294C154.649 157.178 154.296 158.425 154.296 160.05C154.296 161.586 154.668 162.808 155.433 163.692C156.207 164.576 157.255 165.024 158.581 165.024C159.721 165.024 160.94 164.661 162.251 163.969V165.438C161.053 166.054 159.767 166.356 158.353 166.356Z" fill="#858488"/>
<path d="M176.009 166.054L174.693 162.701H169.572L168.261 166.054H166.658L171.444 153.981H173.138L177.844 166.054H176.009ZM174.19 161.43L172.132 156.218L170.072 161.43H174.19Z" fill="#858488"/>
<path d="M182.944 166.054V153.984H184.62L190.685 163.296V153.984H192.158V166.054H190.487L184.413 156.733V166.054H182.944Z" fill="#858488"/>
<path d="M203.472 166.356C201.795 166.356 200.454 165.774 199.433 164.618C198.412 163.46 197.894 161.924 197.894 160.013C197.894 158.087 198.421 156.566 199.439 155.401C200.476 154.258 201.829 153.679 203.551 153.679C205.249 153.679 206.608 154.243 207.645 155.401C208.675 156.541 209.19 158.081 209.19 160.001C209.19 161.955 208.675 163.494 207.645 164.646C206.608 165.774 205.224 166.356 203.472 166.356ZM203.496 165.076C204.728 165.076 205.697 164.625 206.358 163.738C207.029 162.86 207.367 161.598 207.367 159.979C207.367 158.398 207.032 157.175 206.358 156.291C205.691 155.398 204.737 154.969 203.551 154.969C202.347 154.969 201.408 155.398 200.729 156.291C200.052 157.184 199.72 158.419 199.72 160.01C199.72 161.583 200.052 162.817 200.726 163.722C201.384 164.628 202.311 165.076 203.496 165.076Z" fill="#858488"/>
<path d="M5.44434 188.088V176.021H8.71787C10.1809 176.021 11.2264 176.262 11.8634 176.759C12.4974 177.255 12.8235 178.057 12.8235 179.176C12.8235 180.468 12.3876 181.48 11.5129 182.214C10.6442 182.928 9.4372 183.293 7.88882 183.293H7.14206V188.094H5.44434V188.088ZM7.14206 181.989H7.82481C8.84284 181.989 9.62617 181.757 10.1992 181.294C10.7417 180.825 11.0191 180.172 11.0191 179.319C11.0191 178.584 10.7936 178.075 10.3668 177.767C9.92792 177.46 9.2086 177.301 8.19362 177.301H7.14511V181.989H7.14206Z" fill="#858488"/>
<path d="M24.0218 188.088L22.705 184.741H17.6027L16.2616 188.088H14.6736L19.4559 176.021H21.1506L25.8658 188.088H24.0218ZM22.2021 183.47L20.1417 178.261L18.0812 183.47H22.2021Z" fill="#858488"/>
<path d="M29.0356 188.088V176.021H32.6963C33.8423 176.021 34.7323 176.277 35.345 176.786C35.9576 177.292 36.2685 178.042 36.2685 179.011C36.2685 180.63 35.4578 181.76 33.8393 182.446L37.8596 188.091H35.7656L32.3336 182.986H30.7242V188.091H29.0356V188.088ZM30.7212 181.693H31.2759C33.44 181.693 34.5068 180.852 34.5068 179.167C34.5068 177.923 33.6046 177.301 31.8002 177.301H30.7212V181.693Z" fill="#858488"/>
<path d="M48.9358 188.088L47.6252 184.741H42.5015L41.1787 188.088H39.5938L44.3699 176.021H46.0646L50.7799 188.088H48.9358ZM47.1162 183.47L45.0679 178.261L43.0075 183.47H47.1162Z" fill="#858488"/>
<path d="M60.6523 188.088V176.018H62.3592V186.802H67.7907V188.088H60.6523Z" fill="#858488"/>
<path d="M78.9004 188.088L77.5959 184.741H72.4875L71.1494 188.088H69.5645L74.3437 176.021H76.0445L80.7536 188.088H78.9004ZM77.0991 183.47L75.0356 178.261L72.9812 183.47H77.0991Z" fill="#858488"/>
<path d="M90.623 188.088V176.018H97.3652V177.301H92.3208V181.34H96.5605V182.602H92.3208V188.088H90.623Z" fill="#858488"/>
<path d="M102.684 176.018H100.974V188.085H102.684V176.018Z" fill="#858488"/>
<path d="M107.223 188.088V176.018H108.926V186.802H114.364V188.088H107.223Z" fill="#858488"/>
<path d="M125.471 188.088L124.154 184.741H119.043L117.708 188.088H116.116L120.899 176.021H122.6L127.315 188.088H125.471ZM123.654 183.47L121.6 178.261L119.542 183.47H123.654Z" fill="#858488"/>
<path d="M130.476 188.088V176.018H132.164L138.239 185.342V176.018H139.708V188.088H138.035L131.954 178.77V188.088H130.476Z" fill="#858488"/>
<path d="M147.099 188.088V177.301H142.817V176.018H153.076V177.301H148.809V188.088H147.099Z" fill="#858488"/>
<path d="M156.216 188.088V176.021H159.867C161.029 176.021 161.909 176.277 162.531 176.786C163.147 177.292 163.449 178.042 163.449 179.011C163.449 180.63 162.644 181.76 161.026 182.446L165.049 188.091H162.934L159.508 182.986H157.904V188.091H156.216V188.088ZM157.907 181.693H158.468C160.62 181.693 161.693 180.852 161.693 179.167C161.693 177.923 160.794 177.301 158.983 177.301H157.907V181.693Z" fill="#858488"/>
<path d="M173.059 188.399C171.38 188.399 170.029 187.82 169.008 186.652C167.987 185.497 167.487 183.955 167.487 182.056C167.487 180.142 167.984 178.603 169.017 177.447C170.042 176.301 171.413 175.731 173.123 175.731C174.833 175.731 176.195 176.301 177.235 177.447C178.256 178.587 178.771 180.127 178.771 182.044C178.771 183.991 178.256 185.54 177.235 186.68C176.195 187.82 174.806 188.399 173.059 188.399ZM173.065 187.113C174.312 187.113 175.257 186.674 175.936 185.784C176.607 184.9 176.945 183.626 176.945 182.016C176.945 180.447 176.607 179.221 175.927 178.337C175.257 177.444 174.324 177.015 173.12 177.015C171.922 177.015 170.98 177.444 170.325 178.337C169.636 179.224 169.298 180.465 169.298 182.041C169.298 183.62 169.633 184.86 170.307 185.75C170.977 186.655 171.889 187.113 173.065 187.113Z" fill="#858488"/>
<path d="M182.581 188.088V176.021H185.867C187.327 176.021 188.375 176.262 189.012 176.759C189.643 177.255 189.954 178.057 189.954 179.176C189.954 180.468 189.53 181.48 188.647 182.214C187.784 182.928 186.574 183.293 185.035 183.293H184.276V188.094H182.581V188.088ZM184.276 181.989H184.974C185.992 181.989 186.775 181.757 187.327 181.294C187.882 180.825 188.159 180.172 188.159 179.319C188.159 178.584 187.942 178.075 187.51 177.767C187.08 177.46 186.345 177.301 185.33 177.301H184.279V181.989H184.276Z" fill="#858488"/>
<path d="M192.907 175.015L194.864 172.397H196.73L194.111 175.015H192.907ZM193.228 188.097V176.024H194.944V188.1H193.228V188.097Z" fill="#858488"/>
<path d="M207.382 188.088L206.075 184.741H200.96L199.625 188.088H198.043L202.826 176.021H204.53L209.236 188.088H207.382ZM205.578 183.47L203.518 178.261L201.46 183.47H205.578Z" fill="#858488"/>
<path d="M134.563 83.6914H145.545C145.545 44.5979 177.366 12.7678 216.468 12.7678C255.571 12.7678 287.395 44.5979 287.395 83.6914C287.395 122.809 255.571 154.624 216.468 154.624V165.609C261.63 165.609 298.38 128.85 298.38 83.6914C298.38 38.5385 261.634 1.80116 216.468 1.80116C171.31 1.80116 134.563 38.5385 134.563 83.6914Z" fill="#D3752E"/>
<path d="M41.5781 131.907C37.1555 133.898 31.8825 134.879 25.753 134.879C18.2732 134.879 12.4363 132.794 8.25447 128.597C4.09397 124.397 2 118.557 2 111.038C2 103.397 4.10311 97.5018 8.31543 93.3809C12.5095 89.2601 18.4987 87.1874 26.2985 87.1874C31.2546 87.1874 36.1984 87.8123 41.1178 89.0315V96.4594C35.5431 94.4782 30.8766 93.4876 27.1063 93.4876C22.3057 93.4876 18.5871 94.9933 15.9842 98.0383C13.372 101.077 12.0614 105.378 12.0614 110.95C12.0614 116.439 13.4726 120.712 16.2859 123.772C19.0962 126.826 22.9884 128.369 27.9902 128.369C32.4768 128.369 37.0092 127.229 41.5781 124.937V131.907Z" fill="#050006"/>
<path d="M77.3766 132.718C73.0455 134.014 68.9429 134.663 65.078 134.663C59.4332 134.663 54.9922 133.05 51.7309 129.835C48.4817 126.634 46.845 122.239 46.845 116.695C46.845 111.434 48.3385 107.213 51.3194 104.006C54.2942 100.821 58.2353 99.2087 63.1426 99.2087C68.0772 99.2087 71.6891 100.772 73.9599 103.909C76.2428 107.039 77.3766 111.992 77.3766 118.762H56.4461C57.0649 125.248 60.5883 128.485 67.044 128.485C70.1072 128.485 73.5423 127.756 77.3766 126.311V132.718ZM56.3273 113.604H68.4582C68.4582 107.822 66.5959 104.93 62.8896 104.93C59.1101 104.93 56.9277 107.819 56.3273 113.604Z" fill="#050006"/>
<path d="M87.0237 133.861V99.9981H95.8232V106.365C98.4933 101.586 102.288 99.2057 107.223 99.2057C109.771 99.2057 111.865 99.8274 113.498 101.086C115.15 102.336 116.159 104.089 116.528 106.365C119.683 101.586 123.487 99.2057 127.967 99.2057C134.13 99.2057 137.218 102.619 137.218 109.453V133.861H128.412V112.434C128.412 108.401 127.083 106.417 124.435 106.417C121.728 106.417 119.092 108.386 116.528 112.339V133.861H107.716V112.455C107.716 108.423 106.381 106.417 103.708 106.417C101.029 106.417 98.3927 108.389 95.8232 112.358V133.864H87.0237V133.861Z" fill="#050006"/>
<path d="M175.766 132.718C171.434 134.014 167.341 134.663 163.461 134.663C157.825 134.663 153.375 133.05 150.114 129.835C146.859 126.634 145.219 122.239 145.219 116.695C145.219 111.434 146.718 107.213 149.702 104.006C152.686 100.821 156.627 99.2087 161.522 99.2087C166.463 99.2087 170.063 100.772 172.343 103.909C174.62 107.039 175.763 111.992 175.763 118.762H154.829C155.448 125.248 158.968 128.485 165.427 128.485C168.481 128.485 171.928 127.756 175.763 126.311V132.718H175.766ZM154.71 113.604H166.841C166.841 107.822 164.988 104.93 161.272 104.93C157.499 104.93 155.323 107.819 154.71 113.604Z" fill="#050006"/>
<path d="M220.833 99.9981H211.671V133.861H220.833V99.9981Z" fill="#050006"/>
<path d="M198.802 84.3376C190.472 84.3376 186.321 88.745 186.321 97.5658V99.9981H181.636V105.725H186.321V133.858H195.468V105.725H204.045V99.9981H195.468V97.2153C195.468 92.4422 197.044 90.0464 200.174 90.0464C202.179 90.0464 204.438 90.5707 206.934 91.5796C205.337 89.7234 204.286 87.3916 204.045 84.81C202.268 84.5052 200.518 84.3376 198.802 84.3376Z" fill="#050006"/>
<path d="M225.35 83.6762C225.35 88.7236 221.263 92.814 216.212 92.814C211.171 92.814 207.084 88.7236 207.084 83.6762C207.084 78.6317 211.171 74.5444 216.212 74.5444C221.26 74.5444 225.35 78.6317 225.35 83.6762Z" fill="#D3752E"/>
<path d="M216.216 15.7853C178.89 15.7853 148.526 46.1524 148.526 83.475C148.526 83.5512 148.529 83.6274 148.529 83.7036H155.058C155.058 83.6274 155.055 83.5512 155.055 83.475C155.055 49.749 182.493 22.3141 216.216 22.3141C249.942 22.3141 277.376 49.7521 277.376 83.475C277.376 117.113 250.079 144.496 216.472 144.633V151.162C253.678 151.024 283.905 120.712 283.905 83.475C283.908 46.1524 253.541 15.7853 216.216 15.7853Z" fill="#E0B27F"/>
<path d="M216.215 25.5389C184.269 25.5389 158.279 51.5291 158.279 83.475C158.279 83.5512 158.282 83.6274 158.282 83.7036H161.55C161.55 83.6274 161.544 83.5512 161.544 83.475C161.544 53.3274 186.071 28.8033 216.215 28.8033C246.363 28.8033 270.887 53.3304 270.887 83.475C270.887 113.537 246.497 138.003 216.471 138.141V141.408C248.302 141.268 274.152 115.336 274.152 83.475C274.155 51.5291 248.161 25.5389 216.215 25.5389Z" fill="#E7C7A5"/>
<path d="M219.257 184.577C218.696 184.336 218.212 184.007 217.8 183.589C217.389 183.175 217.066 182.687 216.828 182.126C216.59 181.565 216.471 180.974 216.471 180.346C216.471 179.718 216.59 179.124 216.828 178.566C217.066 178.005 217.392 177.518 217.806 177.097C218.221 176.676 218.712 176.344 219.276 176.097C219.839 175.85 220.443 175.728 221.089 175.728C221.732 175.728 222.336 175.85 222.897 176.091C223.457 176.332 223.942 176.661 224.354 177.079C224.765 177.493 225.088 177.981 225.326 178.542C225.564 179.102 225.682 179.697 225.682 180.325C225.682 180.953 225.564 181.547 225.326 182.105C225.088 182.666 224.762 183.153 224.347 183.574C223.933 183.994 223.442 184.327 222.878 184.574C222.314 184.821 221.711 184.942 221.065 184.942C220.422 184.939 219.818 184.82 219.257 184.577ZM222.726 184.208C223.238 183.982 223.683 183.681 224.061 183.297C224.439 182.916 224.731 182.467 224.945 181.955C225.158 181.443 225.262 180.898 225.262 180.322C225.262 179.746 225.155 179.203 224.945 178.694C224.731 178.185 224.439 177.74 224.067 177.359C223.695 176.978 223.253 176.676 222.744 176.457C222.235 176.237 221.683 176.125 221.089 176.125C220.486 176.125 219.931 176.237 219.422 176.463C218.913 176.688 218.471 176.99 218.093 177.371C217.715 177.752 217.419 178.2 217.209 178.712C216.996 179.224 216.892 179.77 216.892 180.346C216.892 180.922 216.999 181.465 217.209 181.974C217.419 182.483 217.715 182.928 218.087 183.309C218.459 183.69 218.901 183.991 219.41 184.211C219.919 184.43 220.47 184.543 221.065 184.543C221.659 184.546 222.214 184.433 222.726 184.208ZM219.273 177.841H221.385C221.912 177.841 222.336 177.969 222.665 178.222C222.991 178.475 223.156 178.825 223.156 179.264C223.156 179.654 223.043 179.965 222.817 180.194C222.592 180.422 222.302 180.581 221.946 180.663L223.396 182.559H222.543L221.181 180.779H219.971V182.559H219.269V177.841H219.273ZM221.321 180.157C221.644 180.157 221.909 180.084 222.122 179.935C222.336 179.785 222.439 179.575 222.439 179.304C222.439 179.042 222.345 178.837 222.153 178.694C221.961 178.551 221.696 178.478 221.357 178.478H219.971V180.157H221.321Z" fill="black"/>
</svg>
