<svg width="301" height="191" viewBox="0 0 301 191" fill="none" xmlns="http://www.w3.org/2000/svg">
<path d="M10.6105 166.788C8.73296 166.788 7.29127 166.233 6.26409 165.136C5.23997 164.045 4.73096 162.472 4.73096 160.457C4.73096 158.445 5.24607 156.879 6.28848 155.788C7.33394 154.675 8.80916 154.111 10.6928 154.111C11.7779 154.111 13.0398 154.294 14.4906 154.648V156.254C12.8356 155.678 11.5584 155.404 10.6684 155.404C9.36085 155.404 8.34282 155.833 7.62654 156.726C6.90417 157.61 6.54756 158.857 6.54756 160.482C6.54756 162.018 6.92551 163.24 7.70274 164.124C8.46779 165.008 9.5102 165.456 10.8422 165.456C11.976 165.456 13.2013 165.093 14.5119 164.401V165.87C13.3202 166.486 12.0126 166.788 10.6105 166.788Z" fill="#D8D8DA"/>
<path d="M20.3306 166.486V154.416H27.0788V155.696H22.0435V159.57H26.2619V160.832H22.0435V165.197H27.4263V166.486H20.3306Z" fill="#D8D8DA"/>
<path d="M32.7266 166.486V154.416H34.3999L40.4867 163.728V154.416H41.9498V166.486H40.2703L34.1957 157.165V166.486H32.7266Z" fill="#D8D8DA"/>
<path d="M51.2617 166.486V155.696H46.9854V154.416H57.254V155.696H52.9777V166.486H51.2617Z" fill="#D8D8DA"/>
<path d="M62.3042 166.486V154.413H65.9526C67.1109 154.413 67.9948 154.672 68.6105 155.169C69.2292 155.687 69.5401 156.44 69.5401 157.4C69.5401 159.015 68.7354 160.162 67.0987 160.832L71.1281 166.486H69.022L65.6021 161.369H63.9897V166.486H62.3042ZM63.9897 160.094H64.5445C66.6963 160.094 67.7784 159.256 67.7784 157.559C67.7784 156.309 66.8762 155.693 65.0657 155.693H63.9867V160.094H63.9897Z" fill="#D8D8DA"/>
<path d="M81.0557 166.788C79.3854 166.788 78.0321 166.206 77.0202 165.05C75.99 163.892 75.481 162.356 75.481 160.445C75.481 158.519 75.99 156.998 77.0202 155.833C78.0474 154.69 79.4251 154.111 81.1258 154.111C82.8388 154.111 84.2012 154.675 85.2315 155.833C86.2678 156.973 86.7737 158.513 86.7737 160.433C86.7737 162.387 86.2678 163.926 85.2315 165.078C84.2043 166.206 82.8175 166.788 81.0557 166.788ZM81.0832 165.508C82.3115 165.508 83.2716 165.057 83.9452 164.17C84.6188 163.292 84.9541 162.03 84.9541 160.411C84.9541 158.83 84.6219 157.607 83.9452 156.723C83.2594 155.83 82.3359 155.401 81.1289 155.401C79.9219 155.401 78.9922 155.83 78.3217 156.723C77.6359 157.616 77.3067 158.851 77.3067 160.442C77.3067 162.015 77.6328 163.249 78.3156 164.154C78.98 165.06 79.8944 165.508 81.0832 165.508Z" fill="#D8D8DA"/>
<path d="M101.127 166.486V154.416H103.507L106.851 163.755L110.292 154.416H112.404V166.486H110.801V156.65L107.482 165.663H105.827L102.596 156.629V166.486H101.127Z" fill="#D8D8DA"/>
<path d="M118.851 166.486V154.416H125.59V155.696H120.567V159.57H124.785V160.832H120.567V165.197H125.94V166.486H118.851Z" fill="#D8D8DA"/>
<path d="M129.826 166.486L133.816 160.433L130.018 154.416H132.048L134.941 158.958L137.995 154.416H139.607L135.749 160.247L139.708 166.486H137.684L134.618 161.692L131.454 166.486H129.826Z" fill="#D8D8DA"/>
<path d="M146.728 154.416H145.024V166.489H146.728V154.416Z" fill="#D8D8DA"/>
<path d="M158.353 166.788C156.493 166.788 155.03 166.233 154.006 165.136C152.982 164.045 152.47 162.472 152.47 160.457C152.47 158.445 152.994 156.879 154.037 155.788C155.079 154.675 156.53 154.111 158.435 154.111C159.511 154.111 160.791 154.294 162.233 154.648V156.254C160.59 155.678 159.31 155.404 158.407 155.404C157.1 155.404 156.073 155.833 155.363 156.726C154.649 157.61 154.296 158.857 154.296 160.482C154.296 162.018 154.668 163.24 155.433 164.124C156.207 165.008 157.255 165.456 158.581 165.456C159.721 165.456 160.94 165.093 162.251 164.401V165.87C161.053 166.486 159.767 166.788 158.353 166.788Z" fill="#D8D8DA"/>
<path d="M176.009 166.486L174.693 163.133H169.572L168.261 166.486H166.658L171.444 154.413H173.138L177.844 166.486H176.009ZM174.19 161.862L172.132 156.65L170.072 161.862H174.19Z" fill="#D8D8DA"/>
<path d="M182.944 166.486V154.416H184.62L190.685 163.728V154.416H192.158V166.486H190.487L184.413 157.165V166.486H182.944Z" fill="#D8D8DA"/>
<path d="M203.472 166.788C201.795 166.788 200.454 166.206 199.433 165.05C198.412 163.892 197.894 162.356 197.894 160.445C197.894 158.519 198.421 156.998 199.439 155.833C200.476 154.69 201.829 154.111 203.551 154.111C205.249 154.111 206.608 154.675 207.645 155.833C208.675 156.973 209.19 158.513 209.19 160.433C209.19 162.387 208.675 163.926 207.645 165.078C206.608 166.206 205.224 166.788 203.472 166.788ZM203.496 165.508C204.728 165.508 205.697 165.057 206.358 164.17C207.029 163.292 207.367 162.03 207.367 160.411C207.367 158.83 207.032 157.607 206.358 156.723C205.691 155.83 204.737 155.401 203.551 155.401C202.347 155.401 201.408 155.83 200.729 156.723C200.052 157.616 199.72 158.851 199.72 160.442C199.72 162.015 200.052 163.249 200.726 164.154C201.384 165.06 202.311 165.508 203.496 165.508Z" fill="#D8D8DA"/>
<path d="M5.44434 188.52V176.453H8.71787C10.1809 176.453 11.2264 176.694 11.8634 177.191C12.4974 177.687 12.8235 178.489 12.8235 179.608C12.8235 180.9 12.3876 181.912 11.5129 182.646C10.6442 183.36 9.4372 183.725 7.88882 183.725H7.14206V188.526H5.44434V188.52ZM7.14206 182.421H7.82481C8.84284 182.421 9.62617 182.189 10.1992 181.726C10.7417 181.257 11.0191 180.604 11.0191 179.751C11.0191 179.016 10.7936 178.507 10.3668 178.199C9.92792 177.892 9.2086 177.733 8.19362 177.733H7.14511V182.421H7.14206Z" fill="#D8D8DA"/>
<path d="M24.0218 188.52L22.705 185.173H17.6027L16.2616 188.52H14.6736L19.4559 176.453H21.1506L25.8658 188.52H24.0218ZM22.2021 183.902L20.1417 178.693L18.0812 183.902H22.2021Z" fill="#D8D8DA"/>
<path d="M29.0356 188.52V176.453H32.6963C33.8423 176.453 34.7323 176.709 35.345 177.218C35.9576 177.724 36.2685 178.474 36.2685 179.443C36.2685 181.062 35.4578 182.192 33.8393 182.878L37.8596 188.523H35.7656L32.3336 183.418H30.7242V188.523H29.0356V188.52ZM30.7212 182.125H31.2759C33.44 182.125 34.5068 181.284 34.5068 179.599C34.5068 178.355 33.6046 177.733 31.8002 177.733H30.7212V182.125Z" fill="#D8D8DA"/>
<path d="M48.9358 188.52L47.6252 185.173H42.5015L41.1787 188.52H39.5938L44.3699 176.453H46.0646L50.7799 188.52H48.9358ZM47.1162 183.902L45.0679 178.693L43.0075 183.902H47.1162Z" fill="#D8D8DA"/>
<path d="M60.6523 188.52V176.45H62.3592V187.234H67.7907V188.52H60.6523Z" fill="#D8D8DA"/>
<path d="M78.9004 188.52L77.5959 185.173H72.4875L71.1494 188.52H69.5645L74.3437 176.453H76.0445L80.7536 188.52H78.9004ZM77.0991 183.902L75.0356 178.693L72.9812 183.902H77.0991Z" fill="#D8D8DA"/>
<path d="M90.623 188.52V176.45H97.3652V177.733H92.3208V181.772H96.5605V183.034H92.3208V188.52H90.623Z" fill="#D8D8DA"/>
<path d="M102.684 176.45H100.974V188.517H102.684V176.45Z" fill="#D8D8DA"/>
<path d="M107.223 188.52V176.45H108.926V187.234H114.364V188.52H107.223Z" fill="#D8D8DA"/>
<path d="M125.471 188.52L124.154 185.173H119.043L117.708 188.52H116.116L120.899 176.453H122.6L127.315 188.52H125.471ZM123.654 183.902L121.6 178.693L119.542 183.902H123.654Z" fill="#D8D8DA"/>
<path d="M130.476 188.52V176.45H132.164L138.239 185.774V176.45H139.708V188.52H138.035L131.954 179.202V188.52H130.476Z" fill="#D8D8DA"/>
<path d="M147.099 188.52V177.733H142.817V176.45H153.076V177.733H148.809V188.52H147.099Z" fill="#D8D8DA"/>
<path d="M156.216 188.52V176.453H159.867C161.029 176.453 161.909 176.709 162.531 177.218C163.147 177.724 163.449 178.474 163.449 179.443C163.449 181.062 162.644 182.192 161.026 182.878L165.049 188.523H162.934L159.508 183.418H157.904V188.523H156.216V188.52ZM157.907 182.125H158.468C160.62 182.125 161.693 181.284 161.693 179.599C161.693 178.355 160.794 177.733 158.983 177.733H157.907V182.125Z" fill="#D8D8DA"/>
<path d="M173.059 188.831C171.38 188.831 170.029 188.252 169.008 187.084C167.987 185.929 167.487 184.387 167.487 182.488C167.487 180.574 167.984 179.035 169.017 177.879C170.042 176.733 171.413 176.163 173.123 176.163C174.833 176.163 176.195 176.733 177.235 177.879C178.256 179.019 178.771 180.559 178.771 182.476C178.771 184.423 178.256 185.972 177.235 187.112C176.195 188.252 174.806 188.831 173.059 188.831ZM173.065 187.545C174.312 187.545 175.257 187.106 175.936 186.216C176.607 185.332 176.945 184.058 176.945 182.448C176.945 180.879 176.607 179.653 175.927 178.769C175.257 177.876 174.324 177.447 173.12 177.447C171.922 177.447 170.98 177.876 170.325 178.769C169.636 179.656 169.298 180.897 169.298 182.473C169.298 184.052 169.633 185.292 170.307 186.182C170.977 187.087 171.889 187.545 173.065 187.545Z" fill="#D8D8DA"/>
<path d="M182.581 188.52V176.453H185.867C187.327 176.453 188.375 176.694 189.012 177.191C189.643 177.687 189.954 178.489 189.954 179.608C189.954 180.9 189.53 181.912 188.647 182.646C187.784 183.36 186.574 183.725 185.035 183.725H184.276V188.526H182.581V188.52ZM184.276 182.421H184.974C185.992 182.421 186.775 182.189 187.327 181.726C187.882 181.257 188.159 180.604 188.159 179.751C188.159 179.016 187.942 178.507 187.51 178.199C187.08 177.892 186.345 177.733 185.33 177.733H184.279V182.421H184.276Z" fill="#D8D8DA"/>
<path d="M192.907 175.447L194.864 172.829H196.73L194.111 175.447H192.907ZM193.228 188.529V176.456H194.944V188.532H193.228V188.529Z" fill="#D8D8DA"/>
<path d="M207.382 188.52L206.075 185.173H200.96L199.625 188.52H198.043L202.826 176.453H204.53L209.236 188.52H207.382ZM205.578 183.902L203.518 178.693L201.46 183.902H205.578Z" fill="#D8D8DA"/>
<path d="M134.563 84.1234H145.545C145.545 45.0299 177.366 13.1998 216.468 13.1998C255.571 13.1998 287.395 45.0299 287.395 84.1234C287.395 123.241 255.571 155.056 216.468 155.056V166.041C261.63 166.041 298.38 129.282 298.38 84.1234C298.38 38.9705 261.634 2.23315 216.468 2.23315C171.31 2.23315 134.563 38.9705 134.563 84.1234Z" fill="#B4B4B4"/>
<path d="M41.5781 132.339C37.1555 134.33 31.8825 135.311 25.753 135.311C18.2732 135.311 12.4363 133.226 8.25447 129.029C4.09397 124.829 2 118.989 2 111.47C2 103.829 4.10311 97.9338 8.31543 93.8129C12.5095 89.6921 18.4987 87.6194 26.2985 87.6194C31.2546 87.6194 36.1984 88.2443 41.1178 89.4635V96.8914C35.5431 94.9102 30.8766 93.9196 27.1063 93.9196C22.3057 93.9196 18.5871 95.4253 15.9842 98.4703C13.372 101.509 12.0614 105.81 12.0614 111.382C12.0614 116.871 13.4726 121.144 16.2859 124.204C19.0962 127.259 22.9884 128.801 27.9902 128.801C32.4768 128.801 37.0092 127.661 41.5781 125.369V132.339Z" fill="white"/>
<path d="M77.3766 133.15C73.0455 134.446 68.9429 135.095 65.078 135.095C59.4332 135.095 54.9922 133.482 51.7309 130.267C48.4817 127.066 46.845 122.671 46.845 117.127C46.845 111.866 48.3385 107.645 51.3194 104.438C54.2942 101.253 58.2353 99.6407 63.1426 99.6407C68.0772 99.6407 71.6891 101.204 73.9599 104.341C76.2428 107.471 77.3766 112.424 77.3766 119.194H56.4461C57.0649 125.68 60.5883 128.917 67.044 128.917C70.1072 128.917 73.5423 128.188 77.3766 126.743V133.15ZM56.3273 114.036H68.4582C68.4582 108.254 66.5959 105.362 62.8896 105.362C59.1101 105.362 56.9277 108.251 56.3273 114.036Z" fill="white"/>
<path d="M87.0237 134.293V100.43H95.8232V106.797C98.4933 102.018 102.288 99.6377 107.223 99.6377C109.771 99.6377 111.865 100.259 113.498 101.518C115.15 102.768 116.159 104.521 116.528 106.797C119.683 102.018 123.487 99.6377 127.967 99.6377C134.13 99.6377 137.218 103.051 137.218 109.885V134.293H128.412V112.866C128.412 108.833 127.083 106.849 124.435 106.849C121.728 106.849 119.092 108.818 116.528 112.771V134.293H107.716V112.887C107.716 108.855 106.381 106.849 103.708 106.849C101.029 106.849 98.3927 108.821 95.8232 112.79V134.296H87.0237V134.293Z" fill="white"/>
<path d="M175.766 133.15C171.434 134.446 167.341 135.095 163.461 135.095C157.825 135.095 153.375 133.482 150.114 130.267C146.859 127.066 145.219 122.671 145.219 117.127C145.219 111.866 146.718 107.645 149.702 104.438C152.686 101.253 156.627 99.6407 161.522 99.6407C166.463 99.6407 170.063 101.204 172.343 104.341C174.62 107.471 175.763 112.424 175.763 119.194H154.829C155.448 125.68 158.968 128.917 165.427 128.917C168.481 128.917 171.928 128.188 175.763 126.743V133.15H175.766ZM154.71 114.036H166.841C166.841 108.254 164.988 105.362 161.272 105.362C157.499 105.362 155.323 108.251 154.71 114.036Z" fill="white"/>
<path d="M220.833 100.43H211.671V134.293H220.833V100.43Z" fill="white"/>
<path d="M198.802 84.7696C190.472 84.7696 186.321 89.1769 186.321 97.9978V100.43H181.636V106.157H186.321V134.29H195.468V106.157H204.045V100.43H195.468V97.6473C195.468 92.8742 197.044 90.4784 200.174 90.4784C202.179 90.4784 204.438 91.0027 206.934 92.0116C205.337 90.1553 204.286 87.8236 204.045 85.242C202.268 84.9372 200.518 84.7696 198.802 84.7696Z" fill="white"/>
<path d="M225.35 84.1081C225.35 89.1556 221.263 93.246 216.212 93.246C211.171 93.246 207.084 89.1556 207.084 84.1081C207.084 79.0637 211.171 74.9764 216.212 74.9764C221.26 74.9764 225.35 79.0637 225.35 84.1081Z" fill="#B4B4B4"/>
<path d="M216.216 16.2173C178.89 16.2173 148.526 46.5844 148.526 83.907C148.526 83.9832 148.529 84.0594 148.529 84.1356H155.058C155.058 84.0594 155.055 83.9832 155.055 83.907C155.055 50.181 182.493 22.7461 216.216 22.7461C249.942 22.7461 277.376 50.1841 277.376 83.907C277.376 117.545 250.079 144.928 216.472 145.065V151.594C253.678 151.456 283.905 121.144 283.905 83.907C283.908 46.5844 253.541 16.2173 216.216 16.2173Z" fill="#B0B0B0"/>
<path d="M216.215 25.9709C184.269 25.9709 158.279 51.9611 158.279 83.907C158.279 83.9832 158.282 84.0594 158.282 84.1356H161.55C161.55 84.0594 161.544 83.9832 161.544 83.907C161.544 53.7594 186.071 29.2353 216.215 29.2353C246.363 29.2353 270.887 53.7624 270.887 83.907C270.887 113.969 246.497 138.435 216.471 138.573V141.84C248.302 141.7 274.152 115.768 274.152 83.907C274.155 51.9611 248.161 25.9709 216.215 25.9709Z" fill="#C6C6C6"/>
<path d="M219.257 185.009C218.696 184.768 218.212 184.439 217.8 184.021C217.389 183.607 217.066 183.119 216.828 182.558C216.59 181.997 216.471 181.406 216.471 180.778C216.471 180.15 216.59 179.556 216.828 178.998C217.066 178.437 217.392 177.95 217.806 177.529C218.221 177.108 218.712 176.776 219.276 176.529C219.839 176.282 220.443 176.16 221.089 176.16C221.732 176.16 222.336 176.282 222.897 176.523C223.457 176.764 223.942 177.093 224.354 177.511C224.765 177.925 225.088 178.413 225.326 178.974C225.564 179.535 225.682 180.129 225.682 180.757C225.682 181.385 225.564 181.979 225.326 182.537C225.088 183.098 224.762 183.585 224.347 184.006C223.933 184.427 223.442 184.759 222.878 185.006C222.314 185.253 221.711 185.374 221.065 185.374C220.422 185.371 219.818 185.253 219.257 185.009ZM222.726 184.64C223.238 184.414 223.683 184.113 224.061 183.729C224.439 183.348 224.731 182.899 224.945 182.387C225.158 181.875 225.262 181.33 225.262 180.754C225.262 180.178 225.155 179.635 224.945 179.126C224.731 178.617 224.439 178.172 224.067 177.791C223.695 177.41 223.253 177.108 222.744 176.889C222.235 176.669 221.683 176.557 221.089 176.557C220.486 176.557 219.931 176.669 219.422 176.895C218.913 177.121 218.471 177.422 218.093 177.803C217.715 178.184 217.419 178.632 217.209 179.144C216.996 179.656 216.892 180.202 216.892 180.778C216.892 181.354 216.999 181.897 217.209 182.406C217.419 182.915 217.715 183.36 218.087 183.741C218.459 184.122 218.901 184.423 219.41 184.643C219.919 184.862 220.47 184.975 221.065 184.975C221.659 184.978 222.214 184.865 222.726 184.64ZM219.273 178.273H221.385C221.912 178.273 222.336 178.401 222.665 178.654C222.991 178.907 223.156 179.257 223.156 179.696C223.156 180.086 223.043 180.397 222.817 180.626C222.592 180.854 222.302 181.013 221.946 181.095L223.396 182.991H222.543L221.181 181.211H219.971V182.991H219.269V178.273H219.273ZM221.321 180.589C221.644 180.589 221.909 180.516 222.122 180.367C222.336 180.217 222.439 180.007 222.439 179.736C222.439 179.474 222.345 179.269 222.153 179.126C221.961 178.983 221.696 178.91 221.357 178.91H219.971V180.589H221.321Z" fill="black"/>
</svg>
