<svg width="301" height="191" viewBox="0 0 301 191" fill="none" xmlns="http://www.w3.org/2000/svg">
<path d="M10.6105 166.572C8.73296 166.572 7.29127 166.017 6.26409 164.92C5.23997 163.829 4.73096 162.256 4.73096 160.241C4.73096 158.229 5.24607 156.663 6.28848 155.572C7.33394 154.459 8.80916 153.895 10.6928 153.895C11.7779 153.895 13.0398 154.078 14.4906 154.432V156.038C12.8356 155.462 11.5584 155.188 10.6684 155.188C9.36085 155.188 8.34282 155.617 7.62654 156.51C6.90417 157.394 6.54756 158.641 6.54756 160.266C6.54756 161.802 6.92551 163.024 7.70274 163.908C8.46779 164.792 9.5102 165.24 10.8422 165.24C11.976 165.24 13.2013 164.877 14.5119 164.185V165.654C13.3202 166.27 12.0126 166.572 10.6105 166.572Z" fill="#858488"/>
<path d="M20.3306 166.27V154.2H27.0788V155.48H22.0435V159.354H26.2619V160.616H22.0435V164.981H27.4263V166.27H20.3306Z" fill="#858488"/>
<path d="M32.7266 166.27V154.2H34.3999L40.4867 163.512V154.2H41.9498V166.27H40.2703L34.1957 156.949V166.27H32.7266Z" fill="#858488"/>
<path d="M51.2617 166.27V155.48H46.9854V154.2H57.254V155.48H52.9777V166.27H51.2617Z" fill="#858488"/>
<path d="M62.3042 166.27V154.197H65.9526C67.1109 154.197 67.9948 154.456 68.6105 154.953C69.2292 155.471 69.5401 156.224 69.5401 157.184C69.5401 158.799 68.7354 159.946 67.0987 160.616L71.1281 166.27H69.022L65.6021 161.153H63.9897V166.27H62.3042ZM63.9897 159.878H64.5445C66.6963 159.878 67.7784 159.04 67.7784 157.343C67.7784 156.093 66.8762 155.477 65.0657 155.477H63.9867V159.878H63.9897Z" fill="#858488"/>
<path d="M81.0557 166.572C79.3854 166.572 78.0321 165.99 77.0202 164.834C75.99 163.676 75.481 162.14 75.481 160.229C75.481 158.303 75.99 156.782 77.0202 155.617C78.0474 154.474 79.4251 153.895 81.1258 153.895C82.8388 153.895 84.2012 154.459 85.2315 155.617C86.2678 156.757 86.7737 158.297 86.7737 160.217C86.7737 162.171 86.2678 163.71 85.2315 164.862C84.2043 165.99 82.8175 166.572 81.0557 166.572ZM81.0832 165.292C82.3115 165.292 83.2716 164.841 83.9452 163.954C84.6188 163.076 84.9541 161.814 84.9541 160.195C84.9541 158.614 84.6219 157.391 83.9452 156.507C83.2594 155.614 82.3359 155.185 81.1289 155.185C79.9219 155.185 78.9922 155.614 78.3217 156.507C77.6359 157.4 77.3067 158.635 77.3067 160.226C77.3067 161.799 77.6328 163.033 78.3156 163.938C78.98 164.844 79.8944 165.292 81.0832 165.292Z" fill="#858488"/>
<path d="M101.127 166.27V154.2H103.507L106.851 163.539L110.292 154.2H112.404V166.27H110.801V156.434L107.482 165.447H105.827L102.596 156.413V166.27H101.127Z" fill="#858488"/>
<path d="M118.851 166.27V154.2H125.59V155.48H120.567V159.354H124.785V160.616H120.567V164.981H125.94V166.27H118.851Z" fill="#858488"/>
<path d="M129.826 166.27L133.816 160.217L130.018 154.2H132.048L134.941 158.742L137.995 154.2H139.607L135.749 160.031L139.708 166.27H137.684L134.618 161.476L131.454 166.27H129.826Z" fill="#858488"/>
<path d="M146.728 154.2H145.024V166.273H146.728V154.2Z" fill="#858488"/>
<path d="M158.353 166.572C156.493 166.572 155.03 166.017 154.006 164.92C152.982 163.829 152.47 162.256 152.47 160.241C152.47 158.229 152.994 156.663 154.037 155.572C155.079 154.459 156.53 153.895 158.435 153.895C159.511 153.895 160.791 154.078 162.233 154.432V156.038C160.59 155.462 159.31 155.188 158.407 155.188C157.1 155.188 156.073 155.617 155.363 156.51C154.649 157.394 154.296 158.641 154.296 160.266C154.296 161.802 154.668 163.024 155.433 163.908C156.207 164.792 157.255 165.24 158.581 165.24C159.721 165.24 160.94 164.877 162.251 164.185V165.654C161.053 166.27 159.767 166.572 158.353 166.572Z" fill="#858488"/>
<path d="M176.009 166.27L174.693 162.917H169.572L168.261 166.27H166.658L171.444 154.197H173.138L177.844 166.27H176.009ZM174.19 161.646L172.132 156.434L170.072 161.646H174.19Z" fill="#858488"/>
<path d="M182.944 166.27V154.2H184.62L190.685 163.512V154.2H192.158V166.27H190.487L184.413 156.949V166.27H182.944Z" fill="#858488"/>
<path d="M203.472 166.572C201.795 166.572 200.454 165.99 199.433 164.834C198.412 163.676 197.894 162.14 197.894 160.229C197.894 158.303 198.421 156.782 199.439 155.617C200.476 154.474 201.829 153.895 203.551 153.895C205.249 153.895 206.608 154.459 207.645 155.617C208.675 156.757 209.19 158.297 209.19 160.217C209.19 162.171 208.675 163.71 207.645 164.862C206.608 165.99 205.224 166.572 203.472 166.572ZM203.496 165.292C204.728 165.292 205.697 164.841 206.358 163.954C207.029 163.076 207.367 161.814 207.367 160.195C207.367 158.614 207.032 157.391 206.358 156.507C205.691 155.614 204.737 155.185 203.551 155.185C202.347 155.185 201.408 155.614 200.729 156.507C200.052 157.4 199.72 158.635 199.72 160.226C199.72 161.799 200.052 163.033 200.726 163.938C201.384 164.844 202.311 165.292 203.496 165.292Z" fill="#858488"/>
<path d="M5.44434 188.304V176.237H8.71787C10.1809 176.237 11.2264 176.478 11.8634 176.975C12.4974 177.471 12.8235 178.273 12.8235 179.392C12.8235 180.684 12.3876 181.696 11.5129 182.43C10.6442 183.144 9.4372 183.509 7.88882 183.509H7.14206V188.31H5.44434V188.304ZM7.14206 182.205H7.82481C8.84284 182.205 9.62617 181.973 10.1992 181.51C10.7417 181.041 11.0191 180.388 11.0191 179.535C11.0191 178.8 10.7936 178.291 10.3668 177.983C9.92792 177.676 9.2086 177.517 8.19362 177.517H7.14511V182.205H7.14206Z" fill="#858488"/>
<path d="M24.0218 188.304L22.705 184.957H17.6027L16.2616 188.304H14.6736L19.4559 176.237H21.1506L25.8658 188.304H24.0218ZM22.2021 183.686L20.1417 178.477L18.0812 183.686H22.2021Z" fill="#858488"/>
<path d="M29.0356 188.304V176.237H32.6963C33.8423 176.237 34.7323 176.493 35.345 177.002C35.9576 177.508 36.2685 178.258 36.2685 179.227C36.2685 180.846 35.4578 181.976 33.8393 182.662L37.8596 188.307H35.7656L32.3336 183.202H30.7242V188.307H29.0356V188.304ZM30.7212 181.909H31.2759C33.44 181.909 34.5068 181.068 34.5068 179.383C34.5068 178.139 33.6046 177.517 31.8002 177.517H30.7212V181.909Z" fill="#858488"/>
<path d="M48.9358 188.304L47.6252 184.957H42.5015L41.1787 188.304H39.5938L44.3699 176.237H46.0646L50.7799 188.304H48.9358ZM47.1162 183.686L45.0679 178.477L43.0075 183.686H47.1162Z" fill="#858488"/>
<path d="M60.6523 188.304V176.234H62.3592V187.018H67.7907V188.304H60.6523Z" fill="#858488"/>
<path d="M78.9004 188.304L77.5959 184.957H72.4875L71.1494 188.304H69.5645L74.3437 176.237H76.0445L80.7536 188.304H78.9004ZM77.0991 183.686L75.0356 178.477L72.9812 183.686H77.0991Z" fill="#858488"/>
<path d="M90.623 188.304V176.234H97.3652V177.517H92.3208V181.556H96.5605V182.818H92.3208V188.304H90.623Z" fill="#858488"/>
<path d="M102.684 176.234H100.974V188.301H102.684V176.234Z" fill="#858488"/>
<path d="M107.223 188.304V176.234H108.926V187.018H114.364V188.304H107.223Z" fill="#858488"/>
<path d="M125.471 188.304L124.154 184.957H119.043L117.708 188.304H116.116L120.899 176.237H122.6L127.315 188.304H125.471ZM123.654 183.686L121.6 178.477L119.542 183.686H123.654Z" fill="#858488"/>
<path d="M130.476 188.304V176.234H132.164L138.239 185.558V176.234H139.708V188.304H138.035L131.954 178.986V188.304H130.476Z" fill="#858488"/>
<path d="M147.099 188.304V177.517H142.817V176.234H153.076V177.517H148.809V188.304H147.099Z" fill="#858488"/>
<path d="M156.216 188.304V176.237H159.867C161.029 176.237 161.909 176.493 162.531 177.002C163.147 177.508 163.449 178.258 163.449 179.227C163.449 180.846 162.644 181.976 161.026 182.662L165.049 188.307H162.934L159.508 183.202H157.904V188.307H156.216V188.304ZM157.907 181.909H158.468C160.62 181.909 161.693 181.068 161.693 179.383C161.693 178.139 160.794 177.517 158.983 177.517H157.907V181.909Z" fill="#858488"/>
<path d="M173.059 188.615C171.38 188.615 170.029 188.036 169.008 186.868C167.987 185.713 167.487 184.171 167.487 182.272C167.487 180.358 167.984 178.819 169.017 177.663C170.042 176.517 171.413 175.947 173.123 175.947C174.833 175.947 176.195 176.517 177.235 177.663C178.256 178.803 178.771 180.343 178.771 182.26C178.771 184.207 178.256 185.756 177.235 186.896C176.195 188.036 174.806 188.615 173.059 188.615ZM173.065 187.329C174.312 187.329 175.257 186.89 175.936 186C176.607 185.116 176.945 183.842 176.945 182.232C176.945 180.663 176.607 179.437 175.927 178.553C175.257 177.66 174.324 177.231 173.12 177.231C171.922 177.231 170.98 177.66 170.325 178.553C169.636 179.44 169.298 180.681 169.298 182.257C169.298 183.836 169.633 185.076 170.307 185.966C170.977 186.871 171.889 187.329 173.065 187.329Z" fill="#858488"/>
<path d="M182.581 188.304V176.237H185.867C187.327 176.237 188.375 176.478 189.012 176.975C189.643 177.471 189.954 178.273 189.954 179.392C189.954 180.684 189.53 181.696 188.647 182.43C187.784 183.144 186.574 183.509 185.035 183.509H184.276V188.31H182.581V188.304ZM184.276 182.205H184.974C185.992 182.205 186.775 181.973 187.327 181.51C187.882 181.041 188.159 180.388 188.159 179.535C188.159 178.8 187.942 178.291 187.51 177.983C187.08 177.676 186.345 177.517 185.33 177.517H184.279V182.205H184.276Z" fill="#858488"/>
<path d="M192.907 175.231L194.864 172.613H196.73L194.111 175.231H192.907ZM193.228 188.313V176.24H194.944V188.316H193.228V188.313Z" fill="#858488"/>
<path d="M207.382 188.304L206.075 184.957H200.96L199.625 188.304H198.043L202.826 176.237H204.53L209.236 188.304H207.382ZM205.578 183.686L203.518 178.477L201.46 183.686H205.578Z" fill="#858488"/>
<path d="M134.563 83.9074H145.545C145.545 44.8139 177.366 12.9838 216.468 12.9838C255.571 12.9838 287.395 44.8139 287.395 83.9074C287.395 123.025 255.571 154.84 216.468 154.84V165.825C261.63 165.825 298.38 129.066 298.38 83.9074C298.38 38.7545 261.634 2.01715 216.468 2.01715C171.31 2.01715 134.563 38.7545 134.563 83.9074Z" fill="#818181"/>
<path d="M41.5781 132.123C37.1555 134.114 31.8825 135.095 25.753 135.095C18.2732 135.095 12.4363 133.01 8.25447 128.813C4.09397 124.613 2 118.773 2 111.254C2 103.613 4.10311 97.7178 8.31543 93.5969C12.5095 89.4761 18.4987 87.4034 26.2985 87.4034C31.2546 87.4034 36.1984 88.0283 41.1178 89.2475V96.6754C35.5431 94.6942 30.8766 93.7036 27.1063 93.7036C22.3057 93.7036 18.5871 95.2093 15.9842 98.2543C13.372 101.293 12.0614 105.594 12.0614 111.166C12.0614 116.655 13.4726 120.928 16.2859 123.988C19.0962 127.042 22.9884 128.585 27.9902 128.585C32.4768 128.585 37.0092 127.445 41.5781 125.153V132.123Z" fill="#050006"/>
<path d="M77.3766 132.934C73.0455 134.23 68.9429 134.879 65.078 134.879C59.4332 134.879 54.9922 133.266 51.7309 130.051C48.4817 126.85 46.845 122.455 46.845 116.911C46.845 111.65 48.3385 107.429 51.3194 104.222C54.2942 101.037 58.2353 99.4247 63.1426 99.4247C68.0772 99.4247 71.6891 100.988 73.9599 104.125C76.2428 107.255 77.3766 112.208 77.3766 118.978H56.4461C57.0649 125.464 60.5883 128.701 67.044 128.701C70.1072 128.701 73.5423 127.972 77.3766 126.527V132.934ZM56.3273 113.82H68.4582C68.4582 108.038 66.5959 105.146 62.8896 105.146C59.1101 105.146 56.9277 108.035 56.3273 113.82Z" fill="#050006"/>
<path d="M87.0237 134.077V100.214H95.8232V106.581C98.4933 101.802 102.288 99.4217 107.223 99.4217C109.771 99.4217 111.865 100.043 113.498 101.302C115.15 102.552 116.159 104.305 116.528 106.581C119.683 101.802 123.487 99.4217 127.967 99.4217C134.13 99.4217 137.218 102.835 137.218 109.669V134.077H128.412V112.65C128.412 108.617 127.083 106.633 124.435 106.633C121.728 106.633 119.092 108.602 116.528 112.555V134.077H107.716V112.671C107.716 108.639 106.381 106.633 103.708 106.633C101.029 106.633 98.3927 108.605 95.8232 112.574V134.08H87.0237V134.077Z" fill="#050006"/>
<path d="M175.766 132.934C171.434 134.23 167.341 134.879 163.461 134.879C157.825 134.879 153.375 133.266 150.114 130.051C146.859 126.85 145.219 122.455 145.219 116.911C145.219 111.65 146.718 107.429 149.702 104.222C152.686 101.037 156.627 99.4247 161.522 99.4247C166.463 99.4247 170.063 100.988 172.343 104.125C174.62 107.255 175.763 112.208 175.763 118.978H154.829C155.448 125.464 158.968 128.701 165.427 128.701C168.481 128.701 171.928 127.972 175.763 126.527V132.934H175.766ZM154.71 113.82H166.841C166.841 108.038 164.988 105.146 161.272 105.146C157.499 105.146 155.323 108.035 154.71 113.82Z" fill="#050006"/>
<path d="M220.833 100.214H211.671V134.077H220.833V100.214Z" fill="#050006"/>
<path d="M198.802 84.5536C190.472 84.5536 186.321 88.9609 186.321 97.7818V100.214H181.636V105.941H186.321V134.074H195.468V105.941H204.045V100.214H195.468V97.4313C195.468 92.6582 197.044 90.2624 200.174 90.2624C202.179 90.2624 204.438 90.7867 206.934 91.7956C205.337 89.9393 204.286 87.6076 204.045 85.026C202.268 84.7212 200.518 84.5536 198.802 84.5536Z" fill="#050006"/>
<path d="M225.35 83.8921C225.35 88.9396 221.263 93.03 216.212 93.03C211.171 93.03 207.084 88.9396 207.084 83.8921C207.084 78.8477 211.171 74.7604 216.212 74.7604C221.26 74.7604 225.35 78.8477 225.35 83.8921Z" fill="#818181"/>
<path d="M216.216 16.0013C178.89 16.0013 148.526 46.3684 148.526 83.691C148.526 83.7672 148.529 83.8434 148.529 83.9196H155.058C155.058 83.8434 155.055 83.7672 155.055 83.691C155.055 49.965 182.493 22.5301 216.216 22.5301C249.942 22.5301 277.376 49.9681 277.376 83.691C277.376 117.329 250.079 144.712 216.472 144.849V151.378C253.678 151.24 283.905 120.928 283.905 83.691C283.908 46.3684 253.541 16.0013 216.216 16.0013Z" fill="#B0B0B0"/>
<path d="M216.215 25.7549C184.269 25.7549 158.279 51.7451 158.279 83.691C158.279 83.7672 158.282 83.8434 158.282 83.9196H161.55C161.55 83.8434 161.544 83.7672 161.544 83.691C161.544 53.5434 186.071 29.0193 216.215 29.0193C246.363 29.0193 270.887 53.5464 270.887 83.691C270.887 113.753 246.497 138.219 216.471 138.357V141.624C248.302 141.484 274.152 115.552 274.152 83.691C274.155 51.7451 248.161 25.7549 216.215 25.7549Z" fill="#C6C6C6"/>
<path d="M219.257 184.793C218.696 184.552 218.212 184.223 217.8 183.805C217.389 183.391 217.066 182.903 216.828 182.342C216.59 181.781 216.471 181.19 216.471 180.562C216.471 179.934 216.59 179.34 216.828 178.782C217.066 178.221 217.392 177.734 217.806 177.313C218.221 176.892 218.712 176.56 219.276 176.313C219.839 176.066 220.443 175.944 221.089 175.944C221.732 175.944 222.336 176.066 222.897 176.307C223.457 176.548 223.942 176.877 224.354 177.295C224.765 177.709 225.088 178.197 225.326 178.758C225.564 179.318 225.682 179.913 225.682 180.541C225.682 181.169 225.564 181.763 225.326 182.321C225.088 182.882 224.762 183.369 224.347 183.79C223.933 184.211 223.442 184.543 222.878 184.79C222.314 185.037 221.711 185.158 221.065 185.158C220.422 185.155 219.818 185.036 219.257 184.793ZM222.726 184.424C223.238 184.198 223.683 183.897 224.061 183.513C224.439 183.132 224.731 182.683 224.945 182.171C225.158 181.659 225.262 181.114 225.262 180.538C225.262 179.962 225.155 179.419 224.945 178.91C224.731 178.401 224.439 177.956 224.067 177.575C223.695 177.194 223.253 176.892 222.744 176.673C222.235 176.453 221.683 176.341 221.089 176.341C220.486 176.341 219.931 176.453 219.422 176.679C218.913 176.904 218.471 177.206 218.093 177.587C217.715 177.968 217.419 178.416 217.209 178.928C216.996 179.44 216.892 179.986 216.892 180.562C216.892 181.138 216.999 181.681 217.209 182.19C217.419 182.699 217.715 183.144 218.087 183.525C218.459 183.906 218.901 184.207 219.41 184.427C219.919 184.646 220.47 184.759 221.065 184.759C221.659 184.762 222.214 184.649 222.726 184.424ZM219.273 178.057H221.385C221.912 178.057 222.336 178.185 222.665 178.438C222.991 178.691 223.156 179.041 223.156 179.48C223.156 179.87 223.043 180.181 222.817 180.41C222.592 180.638 222.302 180.797 221.946 180.879L223.396 182.775H222.543L221.181 180.995H219.971V182.775H219.269V178.057H219.273ZM221.321 180.373C221.644 180.373 221.909 180.3 222.122 180.151C222.336 180.001 222.439 179.791 222.439 179.52C222.439 179.258 222.345 179.053 222.153 178.91C221.961 178.767 221.696 178.694 221.357 178.694H219.971V180.373H221.321Z" fill="black"/>
</svg>
