<svg width="40" height="40" viewBox="0 0 40 40" fill="none" xmlns="http://www.w3.org/2000/svg">
<path d="M33.3333 3.33337C34.2533 3.33337 35 4.08004 35 5.00004V11.2617L20.0017 26.2617L19.9917 33.325L27.0683 33.335L35 25.4034V35C35 35.92 34.2533 36.6667 33.3333 36.6667H6.66667C5.74667 36.6667 5 35.92 5 35V5.00004C5 4.08004 5.74667 3.33337 6.66667 3.33337H33.3333ZM36.2967 14.68L38.6533 17.0367L25.69 30L23.33 29.9967L23.3333 27.6434L36.2967 14.68ZM20 20H11.6667V23.3334H20V20ZM25 13.3334H11.6667V16.6667H25V13.3334Z" fill="#03053D"/>
</svg>
