<svg width="40" height="40" viewBox="0 0 40 40" fill="none" xmlns="http://www.w3.org/2000/svg">
<path d="M28.3333 3.33337V6.66671H33.345C34.2583 6.66671 35 7.40837 35 8.32171V35.0117C35 35.925 34.2583 36.6667 33.345 36.6667H6.655C5.74167 36.6667 5 35.925 5 35.0117V8.32171C5 7.40837 5.74167 6.66671 6.655 6.66671H11.6667V3.33337H28.3333ZM11.6667 10H8.33333V33.3334H31.6667V10H28.3333V13.3334H11.6667V10ZM15 26.6667V30H11.6667V26.6667H15ZM15 21.6667V25H11.6667V21.6667H15ZM15 16.6667V20H11.6667V16.6667H15ZM25 6.66671H15V10H25V6.66671Z" fill="#03053D"/>
</svg>
