<svg width="40" height="40" viewBox="0 0 40 40" fill="none" xmlns="http://www.w3.org/2000/svg">
<path d="M28.3334 31.6667H31.6667V18.3333H21.6667V31.6667H25V21.6667H28.3334V31.6667ZM5.00004 31.6667V6.66667C5.00004 6.22464 5.17564 5.80072 5.4882 5.48816C5.80076 5.17559 6.22468 5 6.66671 5H30C30.4421 5 30.866 5.17559 31.1786 5.48816C31.4911 5.80072 31.6667 6.22464 31.6667 6.66667V15H35V31.6667H36.6667V35H3.33337V31.6667H5.00004ZM11.6667 18.3333V21.6667H15V18.3333H11.6667ZM11.6667 25V28.3333H15V25H11.6667ZM11.6667 11.6667V15H15V11.6667H11.6667Z" fill="#03053D"/>
</svg>
