<svg width="40" height="40" viewBox="0 0 40 40" fill="none" xmlns="http://www.w3.org/2000/svg">
<path d="M35 33.3334H38.3333V36.6667H1.66663V33.3334H4.99996V5.00004C4.99996 4.55801 5.17555 4.13409 5.48811 3.82153C5.80068 3.50897 6.2246 3.33337 6.66663 3.33337H33.3333C33.7753 3.33337 34.1992 3.50897 34.5118 3.82153C34.8244 4.13409 35 4.55801 35 5.00004V33.3334ZM31.6666 33.3334V6.66671H8.33329V33.3334H31.6666ZM13.3333 18.3334H18.3333V21.6667H13.3333V18.3334ZM13.3333 11.6667H18.3333V15H13.3333V11.6667ZM13.3333 25H18.3333V28.3334H13.3333V25ZM21.6666 25H26.6666V28.3334H21.6666V25ZM21.6666 18.3334H26.6666V21.6667H21.6666V18.3334ZM21.6666 11.6667H26.6666V15H21.6666V11.6667Z" fill="#03053D"/>
</svg>
