<svg width="434" height="181" viewBox="0 0 434 181" fill="none" xmlns="http://www.w3.org/2000/svg">
<g clip-path="url(#clip0)">
<path d="M167.406 77.3184C167.406 136.682 105.902 164.408 80.1714 168.845C21.9825 178.858 0.411377 150.378 0.411377 150.378C0.411377 150.378 0.876468 159.467 22.8995 169.526C44.9226 179.578 89.0146 183.32 136.087 155.562C188.197 124.808 193.975 89.2449 196.182 79.5071C200.27 61.2372 195.213 21.0868 142.088 21.0868C88.9557 21.0868 65.4915 54.1141 65.4915 54.1141C65.4915 54.1141 94.694 48.3081 110.501 54.1141L102.836 38.7931C102.843 38.7997 167.406 27.8037 167.406 77.3184Z" fill="#5E5E5E"/>
<path d="M30.2755 105.693C30.2755 46.3031 91.7855 18.5969 117.529 14.1474C177.86 3.72808 197.283 32.6204 197.283 32.6204C197.283 32.6204 196.805 23.5313 174.775 13.4659C152.758 3.40043 108.673 -0.347908 61.6135 27.4238C9.51008 58.1707 3.68661 93.7602 1.50526 103.485C-2.5954 121.755 2.46165 161.918 55.5935 161.918C108.732 161.918 132.176 128.865 132.176 128.865C132.176 128.865 102.98 134.684 87.1804 128.865L94.8446 144.205C94.8512 144.205 30.2755 155.195 30.2755 105.693Z" fill="black"/>
<path d="M46.8551 67.0826H76.6079L75.7498 75.051H56.2028L55.0172 86.5057H73.1164L72.3238 94.009H54.2245L52.9734 105.66H74.099L73.2409 113.629H41.988L46.8551 67.0826Z" fill="black"/>
<path d="M75.7498 111.132L79.3002 103.426C83.5122 104.939 86.9382 105.929 91.4777 105.929C95.1657 105.929 100.629 105.005 100.629 100.333C100.629 93.0915 80.6234 94.009 80.6234 80.2476C80.6234 70.5032 89.1785 66.3552 97.8711 66.3552C103.4 66.3552 107.546 67.2791 112.217 69.4482L108.529 76.6893C105.11 75.3721 101.553 74.7168 97.7991 74.7168C94.8382 74.7168 90.6917 75.3787 90.6917 79.0615C90.6917 85.3131 111.031 85.9749 111.031 99.0089C111.031 110.47 100.301 114.481 90.6917 114.481C85.6215 114.487 80.1583 113.301 75.7498 111.132Z" fill="black"/>
<path d="M131.168 96.0535C130.047 96.1846 128.934 96.2501 127.814 96.2501C126.694 96.2501 125.645 96.1846 124.525 96.1846L122.685 113.629H112.479L117.352 67.076H134.797C143.221 67.076 150.728 70.6343 150.728 79.6513C150.728 86.1715 147.636 90.8438 141.773 93.6747L153.42 111.453L144.007 116.191L131.168 96.0535ZM129.523 88.9435C135.714 88.9435 140.188 87.1676 140.188 80.3852C140.188 75.7784 136.637 75.1166 132.55 75.1166H126.759L125.311 88.9435H129.523Z" fill="black"/>
<path d="M224.677 46.6502H240.563L240.104 50.9097H229.669L229.034 57.0367H238.702L238.283 61.0537H228.614L227.946 67.2922H239.233L238.774 71.5583H222.077L224.677 46.6502Z" fill="black"/>
<path d="M244.82 52.3186H249.111L248.869 54.7825C250.277 53.7995 252.838 51.8205 255.124 51.8205C257.653 51.8205 258.603 52.6331 258.819 54.6776C260.26 53.6554 263.103 51.8205 265.284 51.8205C268.101 51.8205 269.084 52.81 269.084 55.5951C269.084 56.1914 269.012 56.8991 268.946 57.6724L267.472 71.5583H263.182L264.59 58.485C264.623 57.9214 264.695 57.4627 264.695 57.1088C264.695 56.2635 264.452 55.9489 263.64 55.9489C262.441 55.9489 259.494 57.7772 258.721 58.1704L257.312 71.5583H252.989L254.397 58.485C254.469 57.8886 254.502 57.3906 254.502 57.0367C254.502 56.2242 254.26 55.9817 253.447 55.9817C252.255 55.9817 249.334 57.8821 248.495 58.3408L247.087 71.5517H242.796L244.82 52.3186Z" fill="black"/>
<path d="M274.665 52.3186H278.988L278.779 54.1862C280.043 53.236 282.257 52.1089 284.229 52.1089C287.497 52.1089 289.115 54.0092 289.115 58.0983C289.115 64.1599 286.305 71.9121 278.608 71.9121C277.973 71.9121 277.449 71.8794 276.957 71.8073L276.145 79.3105H271.861L274.665 52.3186ZM284.825 58.1376C284.825 56.27 284.012 55.7065 283.102 55.7065C281.661 55.7065 279.728 56.7615 278.425 57.502L277.298 68.2817C277.861 68.3866 278.176 68.4587 278.811 68.4587C283.351 68.4587 284.825 61.8336 284.825 58.1376Z" fill="black"/>
<path d="M293.754 52.3186H298.044L297.795 54.7497C299.164 53.6554 301.202 51.9647 303.35 51.9647C303.769 51.9647 303.914 51.9647 304.477 52.0695L303.704 56.2242C303.108 56.0865 302.754 56.0865 302.158 56.0865C300.717 56.0865 298.647 57.6724 297.448 58.6226L296.007 71.5583H291.716L293.754 52.3186Z" fill="black"/>
<path d="M304.162 64.6514C304.162 58.1639 307.366 51.7878 314.178 51.7878C318.22 51.7878 319.943 54.1468 319.943 56.6894C319.943 59.9659 316.956 61.4797 314.001 62.4692L308.584 64.3368C308.551 64.5465 308.551 64.7955 308.551 64.9725C308.551 67.266 309.082 68.3538 310.451 68.3538C311.964 68.3538 314.001 67.5412 316.288 66.3093L317.801 69.2712C315.338 70.8243 312.881 71.9842 309.468 71.9842C305.073 71.9842 304.162 68.1769 304.162 64.6514ZM313.792 59.0878C315.128 58.557 315.796 57.7838 315.796 56.8664C315.796 55.772 314.951 55.2478 314.073 55.2478C311.296 55.2478 309.606 57.6789 308.944 60.9227L313.792 59.0878Z" fill="black"/>
<path d="M319.982 70.785L321.141 67.3643C322.792 67.9279 324.692 68.3145 326.343 68.3145C327.751 68.3145 329.611 67.8886 329.611 66.27C329.611 63.6291 322.229 62.5347 322.229 57.5282C322.229 53.3015 325.465 51.8926 329.153 51.8926C331.157 51.8926 333.725 52.3841 334.885 52.9804L333.797 56.1848C332.218 55.7261 330.81 55.3723 329.192 55.3723C327.784 55.3723 326.382 55.6213 326.382 57.1678C326.382 59.9135 333.836 61.2897 333.836 66.2241C333.836 71.0471 329.159 71.899 325.995 71.899C324.128 71.9121 321.842 71.6631 319.982 70.785Z" fill="black"/>
<path d="M336.398 65.8899C336.398 58.7012 341.18 52.1089 348.595 52.1089C349.794 52.1089 351.582 52.253 352.813 52.4627L350.848 71.5583H346.525L346.839 68.6684C344.697 70.7129 342.798 71.9776 340.931 71.9776C337.557 71.9842 336.398 69.553 336.398 65.8899ZM347.187 65.1101L348.169 55.772C348.032 55.6999 347.783 55.6999 347.501 55.6999C343.531 55.6999 340.715 60.5295 340.715 65.4574C340.715 66.9056 341.068 68.1376 342.09 68.1376C343.499 68.1441 346.132 66.0275 347.187 65.1101Z" fill="black"/>
<path d="M220.04 105.457L221.939 101.335C224.186 102.148 226.02 102.672 228.444 102.672C230.409 102.672 233.331 102.181 233.331 99.6773C233.331 95.8045 222.647 96.296 222.647 88.9304C222.647 83.7141 227.219 81.4927 231.857 81.4927C234.811 81.4927 237.025 81.9907 239.521 83.1506L237.549 87.0234C235.722 86.3222 233.822 85.9684 231.824 85.9684C230.239 85.9684 228.025 86.3222 228.025 88.2947C228.025 91.6433 238.886 91.9972 238.886 98.9696C238.886 105.097 233.154 107.253 228.025 107.253C225.313 107.259 222.391 106.624 220.04 105.457Z" fill="black"/>
<path d="M240.883 100.031C240.883 92.4559 244.715 87.0955 251.043 87.0955C255.471 87.0955 257.614 90.4113 257.614 94.1466C257.614 99.5004 255.327 107.22 247.486 107.22C243.235 107.22 240.883 104.153 240.883 100.031ZM253.257 94.3628C253.257 91.5122 252.131 90.5948 250.165 90.5948C247.702 90.5948 245.312 94.258 245.312 99.7166C245.312 101.833 246.052 103.629 248.266 103.629C250.69 103.629 253.257 100.247 253.257 94.3628Z" fill="black"/>
<path d="M259.618 100.208C259.618 93.1243 263.201 87.03 269.739 87.03C271.986 87.03 273.781 87.9081 274.691 88.7207L272.687 91.6105C271.737 90.9749 270.859 90.5555 269.7 90.5555C265.271 90.5555 264.073 96.2632 264.073 99.6445C264.073 102.115 264.708 103.485 265.619 103.485C267.197 103.485 268.501 103.098 271.383 101.656L272.791 104.651C271.036 105.706 268.75 107.226 265.055 107.226C261.027 107.22 259.618 104.297 259.618 100.208Z" fill="black"/>
<path d="M277.691 87.5608H282.015L279.977 106.8H275.687L277.691 87.5608ZM277.377 81.5713L280.822 78.5372L283.6 81.5713L280.154 84.6381L277.377 81.5713Z" fill="black"/>
<path d="M284.825 101.126C284.825 93.9369 289.607 87.3511 297.022 87.3511C298.214 87.3511 300.009 87.4887 301.241 87.7049L299.276 106.8H294.952L295.267 103.911C293.125 105.955 291.225 107.22 289.358 107.22C285.984 107.22 284.825 104.789 284.825 101.126ZM295.62 100.352L296.603 91.0142C296.465 90.9421 296.216 90.9421 295.935 90.9421C291.965 90.9421 289.148 95.7717 289.148 100.7C289.148 102.148 289.496 103.38 290.517 103.38C291.926 103.38 294.566 101.27 295.62 100.352Z" fill="black"/>
<path d="M307.11 80.1952H311.433L308.617 106.8H304.326L307.11 80.1952Z" fill="black"/>
<path d="M316.392 87.5608H320.683L320.434 90.0247C321.842 89.0352 324.404 87.0627 326.69 87.0627C329.218 87.0627 330.168 87.8753 330.384 89.9199C331.825 88.8976 334.668 87.0627 336.85 87.0627C339.66 87.0627 340.649 88.0522 340.649 90.8373C340.649 91.4336 340.577 92.1413 340.512 92.9146L339.038 106.8H334.747L336.155 93.7272C336.188 93.1636 336.26 92.7049 336.26 92.351C336.26 91.5057 336.018 91.1911 335.206 91.1911C334.007 91.1911 331.059 93.0194 330.286 93.4126L328.878 106.8H324.554L325.963 93.7272C326.035 93.1308 326.067 92.6328 326.067 92.2789C326.067 91.4664 325.825 91.2239 325.013 91.2239C323.814 91.2239 320.899 93.1243 320.061 93.583L318.652 106.794H314.362L316.392 87.5608Z" fill="black"/>
<path d="M343.708 99.8936C343.708 93.4061 346.905 87.03 353.724 87.03C357.766 87.03 359.489 89.3891 359.489 91.9251C359.489 95.2016 356.502 96.7154 353.547 97.7049L348.136 99.5725C348.104 99.7822 348.104 100.031 348.104 100.208C348.104 102.502 348.628 103.589 349.997 103.589C351.51 103.589 353.547 102.783 355.833 101.545L357.347 104.507C354.884 106.06 352.427 107.22 349.014 107.22C344.625 107.22 343.708 103.419 343.708 99.8936ZM353.344 94.3235C354.68 93.7927 355.349 93.0194 355.349 92.102C355.349 91.0077 354.504 90.4834 353.626 90.4834C350.848 90.4834 349.158 92.9146 348.497 96.1583L353.344 94.3235Z" fill="black"/>
<path d="M362.973 87.5608H367.264L367.015 90.064C368.423 89.0418 371.194 87.0693 373.585 87.0693C376.435 87.0693 377.417 88.0588 377.417 90.8766C377.417 91.4729 377.345 92.1413 377.28 92.9211L375.799 106.807H371.476L372.884 93.7337C372.956 93.1702 372.989 92.6787 372.989 92.3248C372.989 91.4795 372.747 91.1977 371.934 91.1977C370.598 91.1977 367.434 93.1374 366.622 93.5961L365.22 106.807H360.929L362.973 87.5608Z" fill="black"/>
<path d="M381.78 103.026C381.78 102.534 381.813 101.971 381.885 101.335L383.012 90.87H380.195L380.582 87.5608H383.431L383.818 83.6158H388.102L387.676 87.5608H392.988L392.674 90.87H387.329L386.169 101.584C385.992 103.065 386.202 103.452 387.119 103.452C388.102 103.452 390.001 103.026 391.37 102.534L392.176 105.778C390.984 106.381 388.626 107.226 386.169 107.226C383.431 107.22 381.78 106.479 381.78 103.026Z" fill="black"/>
<path d="M394.298 99.8936C394.298 93.4061 397.495 87.03 404.314 87.03C408.356 87.03 410.079 89.3891 410.079 91.9251C410.079 95.2016 407.092 96.7154 404.137 97.7049L398.727 99.5725C398.694 99.7822 398.694 100.031 398.694 100.208C398.694 102.502 399.224 103.589 400.593 103.589C402.107 103.589 404.144 102.783 406.43 101.545L407.943 104.507C405.48 106.06 403.024 107.22 399.611 107.22C395.209 107.22 394.298 103.419 394.298 99.8936ZM403.928 94.3235C405.264 93.7927 405.932 93.0194 405.932 92.102C405.932 91.0077 405.087 90.4834 404.209 90.4834C401.432 90.4834 399.742 92.9146 399.074 96.1583L403.928 94.3235Z" fill="black"/>
<path d="M232.06 132.633C231.464 132.705 230.861 132.737 230.265 132.737C229.669 132.737 229.106 132.705 228.51 132.705L227.527 142.043H222.077L224.677 117.128H233.992C238.493 117.128 242.502 119.028 242.502 123.858C242.502 127.344 240.851 129.847 237.72 131.361L243.943 140.876L238.918 143.412L232.06 132.633ZM231.182 128.825C234.484 128.825 236.875 127.875 236.875 124.245C236.875 121.781 234.975 121.427 232.794 121.427H229.702L228.929 128.825H231.182Z" fill="black"/>
<path d="M245.279 135.129C245.279 128.648 248.476 122.266 255.295 122.266C259.336 122.266 261.059 124.625 261.059 127.167C261.059 130.444 258.072 131.958 255.118 132.947L249.707 134.815C249.674 135.024 249.674 135.273 249.674 135.45C249.674 137.744 250.205 138.832 251.574 138.832C253.087 138.832 255.124 138.019 257.411 136.787L258.924 139.749C256.461 141.302 254.004 142.462 250.591 142.462C246.189 142.462 245.279 138.655 245.279 135.129ZM254.908 129.566C256.245 129.035 256.913 128.262 256.913 127.344C256.913 126.25 256.068 125.726 255.19 125.726C252.412 125.726 250.722 128.157 250.054 131.401L254.908 129.566Z" fill="black"/>
<path d="M261.099 141.263L262.258 137.842C263.909 138.406 265.808 138.792 267.459 138.792C268.868 138.792 270.728 138.366 270.728 136.748C270.728 134.107 263.345 133.013 263.345 128.006C263.345 123.779 266.581 122.364 270.269 122.364C272.274 122.364 274.842 122.862 275.995 123.458L274.907 126.663C273.322 126.204 271.92 125.85 270.302 125.85C268.894 125.85 267.485 126.099 267.485 127.646C267.485 130.391 274.94 131.767 274.94 136.702C274.94 141.525 270.263 142.37 267.099 142.37C265.245 142.39 262.959 142.147 261.099 141.263Z" fill="black"/>
<path d="M280.082 122.803H284.406L284.196 124.671C285.46 123.72 287.674 122.593 289.646 122.593C292.915 122.593 294.533 124.494 294.533 128.583C294.533 134.644 291.723 142.397 284.026 142.397C283.39 142.397 282.866 142.364 282.375 142.292L281.569 149.795H277.279L280.082 122.803ZM290.236 128.616C290.236 126.748 289.43 126.184 288.513 126.184C287.072 126.184 285.139 127.239 283.836 127.98L282.716 138.76C283.279 138.864 283.593 138.937 284.229 138.937C288.762 138.937 290.236 132.311 290.236 128.616Z" fill="black"/>
<path d="M296.603 135.273C296.603 127.698 300.435 122.338 306.763 122.338C311.191 122.338 313.333 125.654 313.333 129.389C313.333 134.743 311.047 142.462 303.212 142.462C298.961 142.462 296.603 139.395 296.603 135.273ZM308.977 129.598C308.977 126.741 307.85 125.824 305.885 125.824C303.422 125.824 301.038 129.487 301.038 134.952C301.038 137.069 301.771 138.864 303.992 138.864C306.409 138.871 308.977 135.483 308.977 129.598Z" fill="black"/>
<path d="M317.905 122.803H322.196L321.953 125.306C323.362 124.284 326.133 122.311 328.524 122.311C331.373 122.311 332.356 123.301 332.356 126.119C332.356 126.715 332.284 127.39 332.212 128.163L330.738 142.049H326.414L327.823 128.976C327.895 128.412 327.928 127.921 327.928 127.567C327.928 126.722 327.679 126.44 326.873 126.44C325.537 126.44 322.373 128.373 321.567 128.832L320.159 142.049H315.868L317.905 122.803Z" fill="black"/>
<path d="M334.537 141.263L335.697 137.842C337.347 138.406 339.247 138.792 340.898 138.792C342.306 138.792 344.166 138.366 344.166 136.748C344.166 134.107 336.784 133.013 336.784 128.006C336.784 123.779 340.02 122.364 343.708 122.364C345.712 122.364 348.274 122.862 349.433 123.458L348.346 126.663C346.767 126.204 345.359 125.85 343.741 125.85C342.332 125.85 340.93 126.099 340.93 127.646C340.93 130.391 348.385 131.767 348.385 136.702C348.385 141.525 343.708 142.37 340.544 142.37C338.684 142.39 336.397 142.147 334.537 141.263Z" fill="black"/>
<path d="M350.953 136.368C350.953 129.179 355.735 122.587 363.15 122.587C364.343 122.587 366.137 122.731 367.369 122.941L365.397 142.036H361.074L361.388 139.146C359.24 141.191 357.346 142.456 355.48 142.456C352.113 142.462 350.953 140.031 350.953 136.368ZM361.742 135.588L362.725 126.25C362.58 126.178 362.338 126.178 362.056 126.178C358.087 126.178 355.27 131.007 355.27 135.935C355.27 137.383 355.617 138.615 356.639 138.615C358.054 138.622 360.687 136.505 361.742 135.588Z" fill="black"/>
<path d="M370.533 141.512L373.238 115.47H377.49L376.612 124.631C377.876 123.681 380.058 122.515 382.029 122.515C385.37 122.515 386.949 124.415 386.949 128.471C386.949 134.566 384.066 142.39 376.402 142.39C374.188 142.39 372.079 141.931 370.533 141.512ZM382.625 128.543C382.625 126.676 381.885 126.112 380.903 126.112C379.494 126.112 377.562 127.135 376.225 127.908L375.066 138.76C375.629 138.864 375.944 138.937 376.612 138.937C381.145 138.937 382.625 132.239 382.625 128.543Z" fill="black"/>
<path d="M392.294 115.437H396.617L393.807 142.043H389.517L392.294 115.437Z" fill="black"/>
<path d="M399.008 135.129C399.008 128.648 402.212 122.266 409.024 122.266C413.066 122.266 414.789 124.625 414.789 127.167C414.789 130.444 411.802 131.958 408.847 132.947L403.43 134.815C403.397 135.024 403.397 135.273 403.397 135.45C403.397 137.744 403.928 138.832 405.297 138.832C406.81 138.832 408.847 138.019 411.133 136.787L412.647 139.749C410.184 141.302 407.727 142.462 404.314 142.462C399.919 142.462 399.008 138.655 399.008 135.129ZM408.638 129.566C409.974 129.035 410.642 128.262 410.642 127.344C410.642 126.25 409.797 125.726 408.919 125.726C406.142 125.726 404.452 128.157 403.784 131.401L408.638 129.566Z" fill="black"/>
<path d="M433.602 126.158C433.602 128.596 431.689 130.509 429.2 130.509C426.737 130.509 424.771 128.596 424.771 126.158C424.771 123.773 426.737 121.859 429.2 121.859C431.689 121.859 433.602 123.773 433.602 126.158ZM425.872 126.158C425.872 128.072 427.287 129.592 429.226 129.592C431.112 129.592 432.501 128.072 432.501 126.184C432.501 124.271 431.112 122.724 429.2 122.724C427.287 122.724 425.872 124.271 425.872 126.158ZM428.518 128.412H427.523V124.114C427.916 124.035 428.466 123.983 429.173 123.983C429.986 123.983 430.353 124.114 430.667 124.297C430.903 124.481 431.086 124.821 431.086 125.241C431.086 125.713 430.719 126.079 430.195 126.237V126.289C430.615 126.446 430.85 126.761 430.981 127.338C431.112 127.993 431.191 128.255 431.296 128.412H430.222C430.091 128.255 430.012 127.862 429.881 127.364C429.802 126.892 429.54 126.682 428.99 126.682H428.518V128.412ZM428.545 125.975H429.016C429.567 125.975 430.012 125.791 430.012 125.346C430.012 124.952 429.724 124.69 429.095 124.69C428.833 124.69 428.649 124.716 428.545 124.743V125.975Z" fill="black"/>
</g>
<defs>
<clipPath id="clip0">
<rect width="433.611" height="179.989" fill="white" transform="translate(0 0.989334)"/>
</clipPath>
</defs>
</svg>
