<svg width="434" height="180" viewBox="0 0 434 180" fill="none" xmlns="http://www.w3.org/2000/svg">
<g clip-path="url(#clip0)">
<path d="M167.406 76.329C167.406 135.693 105.902 163.419 80.1714 167.855C21.9825 177.868 0.411377 149.389 0.411377 149.389C0.411377 149.389 0.876468 158.478 22.8995 168.537C44.9226 178.589 89.0146 182.331 136.087 154.572C188.197 123.819 193.975 88.2556 196.182 78.5178C200.27 60.2479 195.213 20.0975 142.088 20.0975C88.9557 20.0975 65.4915 53.1248 65.4915 53.1248C65.4915 53.1248 94.694 47.3188 110.501 53.1248L102.836 37.8038C102.843 37.8103 167.406 26.8143 167.406 76.329Z" fill="#B38808"/>
<path d="M30.2755 104.704C30.2755 45.3138 91.7855 17.6076 117.529 13.1581C177.86 2.73875 197.283 31.6311 197.283 31.6311C197.283 31.6311 196.805 22.542 174.775 12.4766C152.758 2.41109 108.673 -1.33724 61.6135 26.4345C9.51008 57.1813 3.68661 92.7709 1.50526 102.496C-2.5954 120.765 2.46165 160.929 55.5935 160.929C108.732 160.929 132.176 127.875 132.176 127.875C132.176 127.875 102.98 133.695 87.1804 127.875L94.8446 143.216C94.8512 143.216 30.2755 154.206 30.2755 104.704Z" fill="black"/>
<path d="M46.8551 66.0932H76.6079L75.7498 74.0617H56.2028L55.0172 85.5164H73.1164L72.3238 93.0196H54.2245L52.9734 104.671H74.099L73.2409 112.639H41.988L46.8551 66.0932Z" fill="black"/>
<path d="M75.7498 110.143L79.3002 102.436C83.5122 103.95 86.9382 104.94 91.4777 104.94C95.1657 104.94 100.629 104.016 100.629 99.3433C100.629 92.1022 80.6234 93.0196 80.6234 79.2583C80.6234 69.5139 89.1785 65.3658 97.8711 65.3658C103.4 65.3658 107.546 66.2898 112.217 68.4589L108.529 75.7C105.11 74.3828 101.553 73.7275 97.7991 73.7275C94.8382 73.7275 90.6917 74.3894 90.6917 78.0722C90.6917 84.3238 111.031 84.9856 111.031 98.0196C111.031 109.481 100.301 113.491 90.6917 113.491C85.6215 113.498 80.1583 112.312 75.7498 110.143Z" fill="black"/>
<path d="M131.168 95.0642C130.047 95.1952 128.934 95.2608 127.814 95.2608C126.694 95.2608 125.645 95.1952 124.525 95.1952L122.685 112.639H112.479L117.352 66.0867H134.797C143.221 66.0867 150.728 69.645 150.728 78.6619C150.728 85.1822 147.636 89.8545 141.773 92.6854L153.42 110.464L144.007 115.202L131.168 95.0642ZM129.523 87.9541C135.714 87.9541 140.188 86.1783 140.188 79.3959C140.188 74.7891 136.637 74.1272 132.55 74.1272H126.759L125.311 87.9541H129.523Z" fill="black"/>
<path d="M224.677 45.6608H240.563L240.104 49.9203H229.669L229.034 56.0474H238.702L238.283 60.0644H228.614L227.946 66.3029H239.233L238.774 70.5689H222.077L224.677 45.6608Z" fill="black"/>
<path d="M244.82 51.3292H249.111L248.869 53.7932C250.277 52.8102 252.838 50.8312 255.124 50.8312C257.653 50.8312 258.603 51.6438 258.819 53.6883C260.26 52.666 263.103 50.8312 265.284 50.8312C268.101 50.8312 269.084 51.8207 269.084 54.6057C269.084 55.2021 269.012 55.9098 268.946 56.6831L267.472 70.5689H263.182L264.59 57.4956C264.623 56.9321 264.695 56.4734 264.695 56.1195C264.695 55.2742 264.452 54.9596 263.64 54.9596C262.441 54.9596 259.494 56.7879 258.721 57.1811L257.312 70.5689H252.989L254.397 57.4956C254.469 56.8993 254.502 56.4013 254.502 56.0474C254.502 55.2348 254.26 54.9924 253.447 54.9924C252.255 54.9924 249.334 56.8927 248.495 57.3515L247.087 70.5624H242.796L244.82 51.3292Z" fill="black"/>
<path d="M274.665 51.3292H278.988L278.779 53.1968C280.043 52.2466 282.257 51.1195 284.229 51.1195C287.497 51.1195 289.115 53.0199 289.115 57.109C289.115 63.1705 286.305 70.9228 278.608 70.9228C277.973 70.9228 277.449 70.89 276.957 70.8179L276.145 78.3212H271.861L274.665 51.3292ZM284.825 57.1483C284.825 55.2807 284.012 54.7171 283.102 54.7171C281.661 54.7171 279.728 55.7722 278.425 56.5127L277.298 67.2924C277.861 67.3973 278.176 67.4693 278.811 67.4693C283.351 67.4693 284.825 60.8442 284.825 57.1483Z" fill="black"/>
<path d="M293.754 51.3292H298.044L297.795 53.7604C299.164 52.666 301.202 50.9754 303.35 50.9754C303.769 50.9754 303.914 50.9754 304.477 51.0802L303.704 55.2348C303.108 55.0972 302.754 55.0972 302.158 55.0972C300.717 55.0972 298.647 56.6831 297.448 57.6332L296.007 70.5689H291.716L293.754 51.3292Z" fill="black"/>
<path d="M304.162 63.662C304.162 57.1745 307.366 50.7984 314.178 50.7984C318.22 50.7984 319.943 53.1575 319.943 55.7001C319.943 58.9766 316.956 60.4904 314.001 61.4799L308.584 63.3475C308.551 63.5572 308.551 63.8062 308.551 63.9831C308.551 66.2767 309.082 67.3645 310.451 67.3645C311.964 67.3645 314.001 66.5519 316.288 65.32L317.801 68.2819C315.338 69.835 312.881 70.9949 309.468 70.9949C305.073 70.9949 304.162 67.1876 304.162 63.662ZM313.792 58.0985C315.128 57.5677 315.796 56.7945 315.796 55.877C315.796 54.7827 314.951 54.2584 314.073 54.2584C311.296 54.2584 309.606 56.6896 308.944 59.9334L313.792 58.0985Z" fill="black"/>
<path d="M319.982 69.7957L321.141 66.375C322.792 66.9385 324.692 67.3252 326.343 67.3252C327.751 67.3252 329.611 66.8992 329.611 65.2806C329.611 62.6398 322.229 61.5454 322.229 56.5389C322.229 52.3122 325.465 50.9033 329.153 50.9033C331.157 50.9033 333.725 51.3948 334.885 51.9911L333.797 55.1955C332.218 54.7368 330.81 54.3829 329.192 54.3829C327.784 54.3829 326.382 54.632 326.382 56.1785C326.382 58.9242 333.836 60.3003 333.836 65.2348C333.836 70.0578 329.159 70.9097 325.995 70.9097C324.128 70.9228 321.842 70.6738 319.982 69.7957Z" fill="black"/>
<path d="M336.398 64.9006C336.398 57.7119 341.18 51.1195 348.595 51.1195C349.794 51.1195 351.582 51.2637 352.813 51.4734L350.848 70.5689H346.525L346.839 67.679C344.697 69.7236 342.798 70.9883 340.931 70.9883C337.557 70.9949 336.398 68.5637 336.398 64.9006ZM347.187 64.1207L348.169 54.7827C348.032 54.7106 347.783 54.7106 347.501 54.7106C343.531 54.7106 340.715 59.5402 340.715 64.4681C340.715 65.9163 341.068 67.1482 342.09 67.1482C343.499 67.1548 346.132 65.0382 347.187 64.1207Z" fill="black"/>
<path d="M220.04 104.468L221.939 100.346C224.186 101.158 226.02 101.683 228.444 101.683C230.409 101.683 233.331 101.191 233.331 98.688C233.331 94.8152 222.647 95.3066 222.647 87.941C222.647 82.7248 227.219 80.5033 231.857 80.5033C234.811 80.5033 237.025 81.0014 239.521 82.1612L237.549 86.0341C235.722 85.3329 233.822 84.9791 231.824 84.9791C230.239 84.9791 228.025 85.3329 228.025 87.3054C228.025 90.654 238.886 91.0078 238.886 97.9803C238.886 104.107 233.154 106.263 228.025 106.263C225.313 106.27 222.391 105.634 220.04 104.468Z" fill="black"/>
<path d="M240.883 99.0419C240.883 91.4665 244.715 86.1062 251.043 86.1062C255.471 86.1062 257.614 89.422 257.614 93.1572C257.614 98.5111 255.327 106.231 247.486 106.231C243.235 106.231 240.883 103.164 240.883 99.0419ZM253.257 93.3735C253.257 90.5229 252.131 89.6055 250.165 89.6055C247.702 89.6055 245.312 93.2686 245.312 98.7273C245.312 100.844 246.052 102.639 248.266 102.639C250.69 102.639 253.257 99.2581 253.257 93.3735Z" fill="black"/>
<path d="M259.618 99.2188C259.618 92.135 263.201 86.0406 269.739 86.0406C271.986 86.0406 273.781 86.9187 274.691 87.7313L272.687 90.6212C271.737 89.9856 270.859 89.5662 269.7 89.5662C265.271 89.5662 264.073 95.2739 264.073 98.6552C264.073 101.126 264.708 102.495 265.619 102.495C267.197 102.495 268.501 102.109 271.383 100.667L272.791 103.662C271.036 104.717 268.75 106.237 265.055 106.237C261.027 106.231 259.618 103.308 259.618 99.2188Z" fill="black"/>
<path d="M277.691 86.5714H282.015L279.977 105.811H275.687L277.691 86.5714ZM277.377 80.582L280.822 77.5479L283.6 80.582L280.154 83.6488L277.377 80.582Z" fill="black"/>
<path d="M284.825 100.136C284.825 92.9475 289.607 86.3617 297.022 86.3617C298.214 86.3617 300.009 86.4993 301.241 86.7156L299.276 105.811H294.952L295.267 102.921C293.125 104.966 291.225 106.231 289.358 106.231C285.984 106.231 284.825 103.799 284.825 100.136ZM295.62 99.3629L296.603 90.0249C296.465 89.9528 296.216 89.9528 295.935 89.9528C291.965 89.9528 289.148 94.7824 289.148 99.7103C289.148 101.158 289.496 102.39 290.517 102.39C291.926 102.39 294.566 100.28 295.62 99.3629Z" fill="black"/>
<path d="M307.11 79.2058H311.433L308.617 105.811H304.326L307.11 79.2058Z" fill="black"/>
<path d="M316.392 86.5714H320.683L320.434 89.0354C321.842 88.0459 324.404 86.0734 326.69 86.0734C329.218 86.0734 330.168 86.886 330.384 88.9305C331.825 87.9083 334.668 86.0734 336.85 86.0734C339.66 86.0734 340.649 87.0629 340.649 89.8479C340.649 90.4443 340.577 91.152 340.512 91.9253L339.038 105.811H334.747L336.155 92.7378C336.188 92.1743 336.26 91.7156 336.26 91.3617C336.26 90.5164 336.018 90.2018 335.206 90.2018C334.007 90.2018 331.059 92.0301 330.286 92.4233L328.878 105.811H324.554L325.963 92.7378C326.035 92.1415 326.067 91.6435 326.067 91.2896C326.067 90.477 325.825 90.2346 325.013 90.2346C323.814 90.2346 320.899 92.135 320.061 92.5937L318.652 105.805H314.362L316.392 86.5714Z" fill="black"/>
<path d="M343.708 98.9042C343.708 92.4167 346.905 86.0406 353.724 86.0406C357.766 86.0406 359.489 88.3997 359.489 90.9358C359.489 94.2123 356.502 95.726 353.547 96.7155L348.136 98.5831C348.104 98.7928 348.104 99.0419 348.104 99.2188C348.104 101.512 348.628 102.6 349.997 102.6C351.51 102.6 353.547 101.794 355.833 100.556L357.347 103.518C354.884 105.071 352.427 106.231 349.014 106.231C344.625 106.231 343.708 102.43 343.708 98.9042ZM353.344 93.3342C354.68 92.8034 355.349 92.0301 355.349 91.1127C355.349 90.0183 354.504 89.4941 353.626 89.4941C350.848 89.4941 349.158 91.9253 348.497 95.169L353.344 93.3342Z" fill="black"/>
<path d="M362.973 86.5714H367.264L367.015 89.0747C368.423 88.0524 371.194 86.08 373.585 86.08C376.435 86.08 377.417 87.0695 377.417 89.8873C377.417 90.4836 377.345 91.152 377.28 91.9318L375.799 105.818H371.476L372.884 92.7444C372.956 92.1808 372.989 91.6894 372.989 91.3355C372.989 90.4901 372.747 90.2084 371.934 90.2084C370.598 90.2084 367.434 92.1481 366.622 92.6068L365.22 105.818H360.929L362.973 86.5714Z" fill="black"/>
<path d="M381.78 102.037C381.78 101.545 381.813 100.982 381.885 100.346L383.012 89.8807H380.195L380.582 86.5714H383.431L383.818 82.6265H388.102L387.676 86.5714H392.988L392.674 89.8807H387.329L386.169 100.595C385.992 102.076 386.202 102.463 387.119 102.463C388.102 102.463 390.001 102.037 391.37 101.545L392.176 104.789C390.984 105.392 388.626 106.237 386.169 106.237C383.431 106.231 381.78 105.49 381.78 102.037Z" fill="black"/>
<path d="M394.298 98.9042C394.298 92.4167 397.495 86.0406 404.314 86.0406C408.356 86.0406 410.079 88.3997 410.079 90.9358C410.079 94.2123 407.092 95.726 404.137 96.7155L398.727 98.5831C398.694 98.7928 398.694 99.0419 398.694 99.2188C398.694 101.512 399.224 102.6 400.593 102.6C402.107 102.6 404.144 101.794 406.43 100.556L407.943 103.518C405.48 105.071 403.024 106.231 399.611 106.231C395.209 106.231 394.298 102.43 394.298 98.9042ZM403.928 93.3342C405.264 92.8034 405.932 92.0301 405.932 91.1127C405.932 90.0183 405.087 89.4941 404.209 89.4941C401.432 89.4941 399.742 91.9253 399.074 95.169L403.928 93.3342Z" fill="black"/>
<path d="M232.06 131.643C231.464 131.715 230.861 131.748 230.265 131.748C229.669 131.748 229.106 131.715 228.51 131.715L227.527 141.053H222.077L224.677 116.139H233.992C238.493 116.139 242.502 118.039 242.502 122.869C242.502 126.355 240.851 128.858 237.72 130.372L243.943 139.887L238.918 142.423L232.06 131.643ZM231.182 127.836C234.484 127.836 236.875 126.886 236.875 123.255C236.875 120.791 234.975 120.437 232.794 120.437H229.702L228.929 127.836H231.182Z" fill="black"/>
<path d="M245.279 134.14C245.279 127.659 248.476 121.276 255.295 121.276C259.336 121.276 261.059 123.635 261.059 126.178C261.059 129.454 258.072 130.968 255.118 131.958L249.707 133.825C249.674 134.035 249.674 134.284 249.674 134.461C249.674 136.755 250.205 137.842 251.574 137.842C253.087 137.842 255.124 137.03 257.411 135.798L258.924 138.76C256.461 140.313 254.004 141.473 250.591 141.473C246.189 141.473 245.279 137.665 245.279 134.14ZM254.908 128.576C256.245 128.046 256.913 127.272 256.913 126.355C256.913 125.261 256.068 124.736 255.19 124.736C252.412 124.736 250.722 127.167 250.054 130.411L254.908 128.576Z" fill="black"/>
<path d="M261.099 140.274L262.258 136.853C263.909 137.416 265.808 137.803 267.459 137.803C268.868 137.803 270.728 137.377 270.728 135.758C270.728 133.118 263.345 132.023 263.345 127.017C263.345 122.79 266.581 121.375 270.269 121.375C272.274 121.375 274.842 121.873 275.995 122.469L274.907 125.673C273.322 125.215 271.92 124.861 270.302 124.861C268.894 124.861 267.485 125.11 267.485 126.656C267.485 129.402 274.94 130.778 274.94 135.713C274.94 140.536 270.263 141.381 267.099 141.381C265.245 141.401 262.959 141.158 261.099 140.274Z" fill="black"/>
<path d="M280.082 121.814H284.406L284.196 123.681C285.46 122.731 287.674 121.604 289.646 121.604C292.915 121.604 294.533 123.504 294.533 127.593C294.533 133.655 291.723 141.407 284.026 141.407C283.39 141.407 282.866 141.374 282.375 141.302L281.569 148.806H277.279L280.082 121.814ZM290.236 127.626C290.236 125.759 289.43 125.195 288.513 125.195C287.072 125.195 285.139 126.25 283.836 126.991L282.716 137.77C283.279 137.875 283.593 137.947 284.229 137.947C288.762 137.947 290.236 131.322 290.236 127.626Z" fill="black"/>
<path d="M296.603 134.284C296.603 126.709 300.435 121.348 306.763 121.348C311.191 121.348 313.333 124.664 313.333 128.399C313.333 133.753 311.047 141.473 303.212 141.473C298.961 141.473 296.603 138.406 296.603 134.284ZM308.977 128.609C308.977 125.752 307.85 124.835 305.885 124.835C303.422 124.835 301.038 128.498 301.038 133.963C301.038 136.08 301.771 137.875 303.992 137.875C306.409 137.882 308.977 134.494 308.977 128.609Z" fill="black"/>
<path d="M317.905 121.814H322.196L321.953 124.317C323.362 123.295 326.133 121.322 328.524 121.322C331.373 121.322 332.356 122.312 332.356 125.129C332.356 125.726 332.284 126.401 332.212 127.174L330.738 141.06H326.414L327.823 127.987C327.895 127.423 327.928 126.932 327.928 126.578C327.928 125.732 327.679 125.451 326.873 125.451C325.537 125.451 322.373 127.384 321.567 127.842L320.159 141.06H315.868L317.905 121.814Z" fill="black"/>
<path d="M334.537 140.274L335.697 136.853C337.347 137.416 339.247 137.803 340.898 137.803C342.306 137.803 344.166 137.377 344.166 135.758C344.166 133.118 336.784 132.023 336.784 127.017C336.784 122.79 340.02 121.375 343.708 121.375C345.712 121.375 348.274 121.873 349.433 122.469L348.346 125.673C346.767 125.215 345.359 124.861 343.741 124.861C342.332 124.861 340.93 125.11 340.93 126.656C340.93 129.402 348.385 130.778 348.385 135.713C348.385 140.536 343.708 141.381 340.544 141.381C338.684 141.401 336.397 141.158 334.537 140.274Z" fill="black"/>
<path d="M350.953 135.378C350.953 128.19 355.735 121.597 363.15 121.597C364.343 121.597 366.137 121.742 367.369 121.951L365.397 141.047H361.074L361.388 138.157C359.24 140.201 357.346 141.466 355.48 141.466C352.113 141.473 350.953 139.042 350.953 135.378ZM361.742 134.599L362.725 125.261C362.58 125.188 362.338 125.188 362.056 125.188C358.087 125.188 355.27 130.018 355.27 134.946C355.27 136.394 355.617 137.626 356.639 137.626C358.054 137.633 360.687 135.516 361.742 134.599Z" fill="black"/>
<path d="M370.533 140.523L373.238 114.481H377.49L376.612 123.642C377.876 122.692 380.058 121.525 382.029 121.525C385.37 121.525 386.949 123.426 386.949 127.482C386.949 133.576 384.066 141.401 376.402 141.401C374.188 141.401 372.079 140.942 370.533 140.523ZM382.625 127.554C382.625 125.686 381.885 125.123 380.903 125.123C379.494 125.123 377.562 126.145 376.225 126.918L375.066 137.77C375.629 137.875 375.944 137.947 376.612 137.947C381.145 137.947 382.625 131.25 382.625 127.554Z" fill="black"/>
<path d="M392.294 114.448H396.617L393.807 141.053H389.517L392.294 114.448Z" fill="black"/>
<path d="M399.008 134.14C399.008 127.659 402.212 121.276 409.024 121.276C413.066 121.276 414.789 123.635 414.789 126.178C414.789 129.454 411.802 130.968 408.847 131.958L403.43 133.825C403.397 134.035 403.397 134.284 403.397 134.461C403.397 136.755 403.928 137.842 405.297 137.842C406.81 137.842 408.847 137.03 411.133 135.798L412.647 138.76C410.184 140.313 407.727 141.473 404.314 141.473C399.919 141.473 399.008 137.665 399.008 134.14ZM408.638 128.576C409.974 128.046 410.642 127.272 410.642 126.355C410.642 125.261 409.797 124.736 408.919 124.736C406.142 124.736 404.452 127.167 403.784 130.411L408.638 128.576Z" fill="black"/>
<path d="M433.602 125.169C433.602 127.607 431.689 129.52 429.2 129.52C426.737 129.52 424.771 127.607 424.771 125.169C424.771 122.784 426.737 120.87 429.2 120.87C431.689 120.87 433.602 122.784 433.602 125.169ZM425.872 125.169C425.872 127.082 427.287 128.603 429.226 128.603C431.112 128.603 432.501 127.082 432.501 125.195C432.501 123.282 431.112 121.735 429.2 121.735C427.287 121.735 425.872 123.282 425.872 125.169ZM428.518 127.423H427.523V123.124C427.916 123.046 428.466 122.993 429.173 122.993C429.986 122.993 430.353 123.124 430.667 123.308C430.903 123.491 431.086 123.832 431.086 124.251C431.086 124.723 430.719 125.09 430.195 125.247V125.3C430.615 125.457 430.85 125.772 430.981 126.348C431.112 127.004 431.191 127.266 431.296 127.423H430.222C430.091 127.266 430.012 126.873 429.881 126.375C429.802 125.903 429.54 125.693 428.99 125.693H428.518V127.423ZM428.545 124.985H429.016C429.567 124.985 430.012 124.802 430.012 124.356C430.012 123.963 429.724 123.701 429.095 123.701C428.833 123.701 428.649 123.727 428.545 123.753V124.985Z" fill="black"/>
</g>
<defs>
<clipPath id="clip0">
<rect width="433.611" height="179.989" fill="white"/>
</clipPath>
</defs>
</svg>
