<svg width="17" height="17" viewBox="0 0 17 17" fill="none" xmlns="http://www.w3.org/2000/svg">
<path d="M3.37613 7.06215L1.31813 9.12015C0.474146 9.96413 0 11.1088 0 12.3024C0 13.496 0.474146 14.6407 1.31813 15.4846C2.16212 16.3286 3.30681 16.8028 4.50038 16.8028C5.69396 16.8028 6.83865 16.3286 7.68263 15.4846L10.4246 12.7411C10.9336 12.2321 11.313 11.6085 11.531 10.9225C11.7491 10.2365 11.7993 9.50819 11.6777 8.79875C11.556 8.0893 11.2659 7.41939 10.8318 6.84525C10.3976 6.27111 9.8321 5.80949 9.18263 5.49915L8.30363 6.37815C8.21438 6.46753 8.13677 6.56782 8.07263 6.67665C8.57442 6.8209 9.02988 7.09362 9.39397 7.46783C9.75807 7.84205 10.0182 8.30481 10.1486 8.81037C10.2791 9.31592 10.2753 9.84677 10.1377 10.3504C10.0001 10.8541 9.73349 11.3131 9.36413 11.6821L6.62363 14.4241C6.06071 14.9871 5.29722 15.3033 4.50113 15.3033C3.70504 15.3033 2.94155 14.9871 2.37863 14.4241C1.81571 13.8612 1.49946 13.0977 1.49946 12.3016C1.49946 11.5056 1.81571 10.7421 2.37863 10.1791L3.56813 8.99115C3.4003 8.36224 3.33546 7.71029 3.37613 7.06065V7.06215Z" fill="black"/>
<path d="M6.18303 4.25727C5.67409 4.76629 5.29468 5.38997 5.07664 6.07595C4.85861 6.76194 4.80832 7.49023 4.92999 8.19967C5.05166 8.90912 5.34174 9.57903 5.77588 10.1532C6.21003 10.7273 6.77557 11.1889 7.42503 11.4993L8.58753 10.3353C8.07895 10.1989 7.61523 9.93099 7.24298 9.55858C6.87073 9.18617 6.60305 8.72234 6.46685 8.21371C6.33064 7.70507 6.33071 7.16955 6.46705 6.66095C6.60338 6.15235 6.87118 5.68859 7.24353 5.31627L9.98403 2.57427C10.547 2.01135 11.3104 1.69511 12.1065 1.69511C12.9026 1.69511 13.6661 2.01135 14.229 2.57427C14.792 3.1372 15.1082 3.90068 15.1082 4.69677C15.1082 5.49287 14.792 6.25635 14.229 6.81927L13.0395 8.00727C13.2075 8.63727 13.272 9.28977 13.2315 9.93777L15.2895 7.87977C16.1335 7.03579 16.6077 5.8911 16.6077 4.69752C16.6077 3.50395 16.1335 2.35926 15.2895 1.51527C14.4455 0.67129 13.3009 0.197144 12.1073 0.197144C10.9137 0.197144 9.76901 0.67129 8.92503 1.51527L6.18303 4.25727Z" fill="black"/>
</svg>
