<svg width="17" height="15" viewBox="0 0 17 15" fill="none" xmlns="http://www.w3.org/2000/svg">
<path d="M3.78353 1.66665C3.78331 2.10867 3.6075 2.53251 3.29478 2.84491C2.98207 3.15732 2.55806 3.3327 2.11603 3.33248C1.674 3.33226 1.25017 3.15645 0.937762 2.84373C0.625357 2.53102 0.449975 2.10701 0.450196 1.66498C0.450417 1.22295 0.626223 0.799116 0.93894 0.486712C1.25166 0.174307 1.67567 -0.0010753 2.1177 -0.000854284C2.55972 -0.00063327 2.98356 0.175173 3.29596 0.48789C3.60837 0.800607 3.78375 1.22462 3.78353 1.66665ZM3.83353 4.56665H0.500195V15H3.83353V4.56665ZM9.1002 4.56665H5.78353V15H9.06686V9.52498C9.06686 6.47498 13.0419 6.19165 13.0419 9.52498V15H16.3335V8.39165C16.3335 3.24998 10.4502 3.44165 9.06686 5.96665L9.1002 4.56665Z" fill="#03053D"/>
</svg>
