<svg width="18" height="15" viewBox="0 0 18 15" fill="none" xmlns="http://www.w3.org/2000/svg">
<path d="M17.4683 2.21327C16.8321 2.49468 16.1574 2.6795 15.4666 2.76161C16.1947 2.32613 16.7397 1.64078 16.9999 0.833272C16.3166 1.23994 15.5674 1.52494 14.7866 1.67911C14.2621 1.11792 13.5669 0.745741 12.809 0.620426C12.0512 0.495111 11.2732 0.623681 10.596 0.98615C9.91875 1.34862 9.38024 1.92468 9.06418 2.62477C8.74812 3.32486 8.67221 4.10976 8.84825 4.85744C7.46251 4.78798 6.10686 4.42787 4.86933 3.80049C3.63179 3.17311 2.54003 2.29248 1.66492 1.21577C1.35516 1.74781 1.19238 2.35263 1.19326 2.96827C1.19326 4.1766 1.80826 5.24411 2.74326 5.86911C2.18993 5.85169 1.64878 5.70226 1.16492 5.43327V5.4766C1.16509 6.28136 1.44356 7.06129 1.95313 7.68415C2.46269 8.30702 3.17199 8.7345 3.96075 8.8941C3.4471 9.0333 2.90851 9.05382 2.38576 8.9541C2.60814 9.6468 3.04159 10.2526 3.62541 10.6867C4.20924 11.1208 4.9142 11.3614 5.64159 11.3749C4.91866 11.9427 4.0909 12.3624 3.20566 12.6101C2.32041 12.8577 1.39503 12.9285 0.482422 12.8183C2.0755 13.8428 3.93 14.3867 5.82409 14.3849C12.2349 14.3849 15.7408 9.07411 15.7408 4.46827C15.7408 4.31827 15.7366 4.16661 15.7299 4.01827C16.4123 3.52508 17.0013 2.91412 17.4691 2.21411L17.4683 2.21327Z" fill="#03053D"/>
</svg>
